<svg width="283" height="288" viewBox="0 0 283 288" fill="none" xmlns="http://www.w3.org/2000/svg">
<path fill-rule="evenodd" clip-rule="evenodd" d="M83.9998 626.5L83.9999 73L85.9999 73L85.9998 626.5L83.9998 626.5Z" fill="#3C652F"/>
<path d="M169.706 152.569C200.948 121.327 251.601 121.327 282.843 152.569L84.8528 350.558C69.2318 366.179 43.9052 366.179 28.2843 350.558C12.6633 334.937 12.6633 309.611 28.2843 293.99L169.706 152.569Z" fill="#74AA63"/>
<path fill-rule="evenodd" clip-rule="evenodd" d="M137.469 297.591C137.433 298.142 136.957 298.56 136.406 298.523L34.2291 291.806C33.678 291.77 33.2606 291.293 33.2969 290.742C33.3331 290.191 33.8092 289.774 34.3603 289.81L136.537 296.528C137.088 296.564 137.506 297.04 137.469 297.591Z" fill="#638A4E"/>
<path fill-rule="evenodd" clip-rule="evenodd" d="M161.511 273.549C161.475 274.1 160.999 274.518 160.448 274.482L58.2707 267.764C57.7196 267.728 57.3022 267.252 57.3385 266.701C57.3747 266.15 57.8508 265.732 58.4019 265.768L160.579 272.486C161.13 272.522 161.547 272.998 161.511 273.549Z" fill="#638A4E"/>
<path fill-rule="evenodd" clip-rule="evenodd" d="M185.553 249.508C185.517 250.059 185.04 250.476 184.489 250.44L82.3124 243.723C81.7613 243.686 81.3439 243.21 81.3801 242.659C81.4163 242.108 81.8925 241.691 82.4436 241.727L184.62 248.444C185.172 248.481 185.589 248.957 185.553 249.508Z" fill="#638A4E"/>
<path fill-rule="evenodd" clip-rule="evenodd" d="M209.594 225.466C209.558 226.017 209.082 226.435 208.531 226.398L106.354 219.681C105.803 219.645 105.385 219.169 105.422 218.617C105.458 218.066 105.934 217.649 106.485 217.685L208.662 224.403C209.213 224.439 209.631 224.915 209.594 225.466Z" fill="#638A4E"/>
<path fill-rule="evenodd" clip-rule="evenodd" d="M233.636 201.425C233.6 201.976 233.124 202.393 232.573 202.357L130.396 195.639C129.845 195.603 129.427 195.127 129.463 194.576C129.5 194.025 129.976 193.607 130.527 193.644L232.704 200.361C233.255 200.397 233.672 200.873 233.636 201.425Z" fill="#638A4E"/>
<path fill-rule="evenodd" clip-rule="evenodd" d="M257.678 177.383C257.641 177.934 257.165 178.351 256.614 178.315L154.437 171.598C153.886 171.561 153.469 171.085 153.505 170.534C153.541 169.983 154.017 169.566 154.568 169.602L256.745 176.319C257.296 176.356 257.714 176.832 257.678 177.383Z" fill="#638A4E"/>
<path fill-rule="evenodd" clip-rule="evenodd" d="M281.719 153.341C281.683 153.892 281.207 154.31 280.656 154.274L178.479 147.556C177.928 147.52 177.51 147.044 177.547 146.493C177.583 145.941 178.059 145.524 178.61 145.56L280.787 152.278C281.338 152.314 281.755 152.79 281.719 153.341Z" fill="#638A4E"/>
<path fill-rule="evenodd" clip-rule="evenodd" d="M31.5145 110.035L137.875 48.6279L138.865 50.3434L32.505 111.751L31.5145 110.035Z" fill="#D74A51"/>
<path fill-rule="evenodd" clip-rule="evenodd" d="M23.783 79.1988L146.597 79.1988L146.597 81.1797L23.783 81.1797L23.783 79.1988Z" fill="#D74A51"/>
<path fill-rule="evenodd" clip-rule="evenodd" d="M32.505 48.6279L138.865 110.035L137.875 111.751L31.5146 50.3434L32.505 48.6279Z" fill="#D74A51"/>
<path fill-rule="evenodd" clip-rule="evenodd" d="M55.3443 26.5138L116.751 132.874L115.036 133.864L53.6288 27.5043L55.3443 26.5138Z" fill="#D74A51"/>
<path fill-rule="evenodd" clip-rule="evenodd" d="M86.1805 18.7821L86.1805 141.596L84.1997 141.596L84.1997 18.7821L86.1805 18.7821Z" fill="#D74A51"/>
<path fill-rule="evenodd" clip-rule="evenodd" d="M116.751 27.5042L55.3442 133.864L53.6288 132.874L115.036 26.5138L116.751 27.5042Z" fill="#D74A51"/>
<path fill-rule="evenodd" clip-rule="evenodd" d="M138.866 50.3434L32.5054 111.751L31.5149 110.035L137.875 48.6279L138.866 50.3434Z" fill="#D74A51"/>
<path fill-rule="evenodd" clip-rule="evenodd" d="M146.597 81.1797L23.783 81.1797L23.783 79.1988L146.597 79.1988L146.597 81.1797Z" fill="#D74A51"/>
<path fill-rule="evenodd" clip-rule="evenodd" d="M137.875 111.751L31.515 50.3434L32.5054 48.6279L138.866 110.035L137.875 111.751Z" fill="#D74A51"/>
<path fill-rule="evenodd" clip-rule="evenodd" d="M115.036 133.865L53.6288 27.5044L55.3443 26.514L116.751 132.874L115.036 133.865Z" fill="#D74A51"/>
<path fill-rule="evenodd" clip-rule="evenodd" d="M84.1996 141.596V18.7821H86.1805V141.596H84.1996Z" fill="#D74A51"/>
<path fill-rule="evenodd" clip-rule="evenodd" d="M53.6288 132.874L115.036 26.5139L116.751 27.5043L55.3443 133.865L53.6288 132.874Z" fill="#D74A51"/>
<path d="M116.133 15.9293C119.661 10.768 127.576 15.3381 124.87 20.9737V20.9737C123.789 23.226 124.513 25.9304 126.576 27.3402V27.3402C131.737 30.8678 127.167 38.7835 121.532 36.0775V36.0775C119.279 34.996 116.575 35.7207 115.165 37.7834V37.7834C111.638 42.9447 103.722 38.3745 106.428 32.7389V32.7389C107.509 30.4867 106.785 27.7822 104.722 26.3724V26.3724C99.5608 22.8448 104.131 14.9291 109.766 17.6352V17.6352C112.019 18.7166 114.723 17.992 116.133 15.9293V15.9293Z" fill="#EC6973"/>
<path d="M116.685 30.7205C114.551 31.2922 112.358 30.0259 111.786 27.8921C111.214 25.7582 112.481 23.5648 114.615 22.9931C116.748 22.4213 118.942 23.6876 119.514 25.8215C120.085 27.9554 118.819 30.1487 116.685 30.7205Z" fill="#F4B542" stroke="#DC8433" stroke-width="2"/>
<path d="M144.592 41.4269C150.228 38.7208 154.798 46.6365 149.637 50.1641V50.1641C147.574 51.5739 146.849 54.2784 147.931 56.5306V56.5306C150.637 62.1662 142.721 66.7364 139.194 61.5751V61.5751C137.784 59.5124 135.079 58.7877 132.827 59.8692V59.8692C127.191 62.5752 122.621 54.6595 127.783 51.1319V51.1319C129.845 49.7221 130.57 47.0177 129.489 44.7654V44.7654C126.782 39.1298 134.698 34.5597 138.226 39.721V39.721C139.636 41.7837 142.34 42.5083 144.592 41.4269V41.4269Z" fill="#EC6973"/>
<path d="M137.675 54.5125C135.541 53.9407 134.275 51.7474 134.846 49.6135C135.418 47.4796 137.611 46.2133 139.745 46.7851C141.879 47.3569 143.146 49.5502 142.574 51.6841C142.002 53.8179 139.809 55.0843 137.675 54.5125Z" fill="#F4B542" stroke="#DC8433" stroke-width="2"/>
<path d="M156.49 77.7375C162.724 78.2118 162.724 87.3521 156.49 87.8264V87.8264C153.999 88.016 152.019 89.9958 151.829 92.487V92.487C151.355 98.7206 142.215 98.7206 141.74 92.487V92.487C141.551 89.9958 139.571 88.016 137.08 87.8264V87.8264C130.846 87.3521 130.846 78.2118 137.08 77.7375V77.7375C139.571 77.548 141.551 75.5681 141.74 73.0769V73.0769C142.215 66.8433 151.355 66.8433 151.829 73.0769V73.0769C152.019 75.5682 153.999 77.548 156.49 77.7375V77.7375Z" fill="#EC6973"/>
<path d="M143.956 85.6113C142.394 84.0492 142.394 81.5165 143.956 79.9544C145.519 78.3923 148.051 78.3923 149.613 79.9544C151.175 81.5165 151.175 84.0492 149.613 85.6113C148.051 87.1734 145.519 87.1734 143.956 85.6113Z" fill="#F4B542" stroke="#DC8433" stroke-width="2"/>
<path d="M148.637 115.132C153.798 118.659 149.228 126.575 143.592 123.869V123.869C141.34 122.788 138.636 123.512 137.226 125.575V125.575C133.698 130.736 125.783 126.166 128.489 120.531V120.531C129.57 118.278 128.845 115.574 126.783 114.164V114.164C121.621 110.637 126.192 102.721 131.827 105.427V105.427C134.079 106.508 136.784 105.784 138.194 103.721V103.721C141.721 98.5597 149.637 103.13 146.931 108.765V108.765C145.85 111.018 146.574 113.722 148.637 115.132V115.132Z" fill="#EC6973"/>
<path d="M133.846 115.684C133.274 113.55 134.54 111.357 136.674 110.785C138.808 110.213 141.001 111.48 141.573 113.613C142.145 115.747 140.878 117.941 138.745 118.512C136.611 119.084 134.417 117.818 133.846 115.684Z" fill="#F4B542" stroke="#DC8433" stroke-width="2"/>
<path d="M123.138 143.59C125.844 149.226 117.928 153.796 114.401 148.635V148.635C112.991 146.572 110.286 145.847 108.034 146.929V146.929C102.399 149.635 97.8285 141.719 102.99 138.192V138.192C105.052 136.782 105.777 134.077 104.696 131.825V131.825C101.99 126.189 109.905 121.619 113.433 126.781V126.781C114.843 128.843 117.547 129.568 119.799 128.486V128.486C125.435 125.78 130.005 133.696 124.844 137.224V137.224C122.781 138.634 122.057 141.338 123.138 143.59V143.59Z" fill="#EC6973"/>
<path d="M110.052 136.673C110.624 134.539 112.817 133.273 114.951 133.844C117.085 134.416 118.352 136.609 117.78 138.743C117.208 140.877 115.015 142.143 112.881 141.572C110.747 141 109.481 138.807 110.052 136.673Z" fill="#F4B542" stroke="#DC8433" stroke-width="2"/>
<path d="M86.8275 155.487C86.3532 161.721 77.213 161.721 76.7386 155.487V155.487C76.5491 152.996 74.5693 151.016 72.078 150.826V150.826C65.8444 150.352 65.8444 141.212 72.078 140.738V140.738C74.5693 140.548 76.5491 138.568 76.7386 136.077V136.077C77.213 129.843 86.3532 129.843 86.8275 136.077V136.077C87.0171 138.568 88.9969 140.548 91.4882 140.738V140.738C97.7218 141.212 97.7218 150.352 91.4882 150.826V150.826C88.9969 151.016 87.0171 152.996 86.8275 155.487V155.487Z" fill="#EC6973"/>
<path d="M78.9538 142.954C80.5159 141.391 83.0486 141.391 84.6107 142.954C86.1728 144.516 86.1728 147.048 84.6107 148.61C83.0486 150.172 80.5159 150.172 78.9538 148.61C77.3917 147.048 77.3917 144.516 78.9538 142.954Z" fill="#F4B542" stroke="#DC8433" stroke-width="2"/>
<path d="M49.4329 147.635C45.9053 152.796 37.9896 148.226 40.6957 142.59V142.59C41.7771 140.338 41.0525 137.634 38.9898 136.224V136.224C33.8285 132.696 38.3986 124.781 44.0342 127.487V127.487C46.2865 128.568 48.9909 127.843 50.4007 125.781V125.781C53.9283 120.619 61.844 125.19 59.138 130.825V130.825C58.0565 133.077 58.7812 135.782 60.8439 137.192V137.192C66.0052 140.719 61.435 148.635 55.7994 145.929V145.929C53.5472 144.847 50.8427 145.572 49.4329 147.635V147.635Z" fill="#EC6973"/>
<path d="M48.8808 132.844C51.0147 132.272 53.208 133.538 53.7798 135.672C54.3515 137.806 53.0852 139.999 50.9513 140.571C48.8175 141.143 46.6241 139.876 46.0524 137.743C45.4806 135.609 46.7469 133.415 48.8808 132.844Z" fill="#F4B542" stroke="#DC8433" stroke-width="2"/>
<path d="M20.9736 122.137C15.338 124.843 10.7679 116.928 15.9292 113.4V113.4C17.9919 111.99 18.7166 109.286 17.6351 107.034V107.034C14.9291 101.398 22.8448 96.8279 26.3723 101.989V101.989C27.7821 104.052 30.4866 104.776 32.7389 103.695V103.695C38.3745 100.989 42.9446 108.905 37.7833 112.432V112.432C35.7206 113.842 34.996 116.547 36.0774 118.799V118.799C38.7834 124.434 30.8677 129.005 27.3402 123.843V123.843C25.9304 121.781 23.2259 121.056 20.9736 122.137V122.137Z" fill="#EC6973"/>
<path d="M27.8911 109.052C30.025 109.624 31.2913 111.817 30.7195 113.951C30.1478 116.085 27.9544 117.351 25.8206 116.779C23.6867 116.207 22.4204 114.014 22.9921 111.88C23.5639 109.746 25.7572 108.48 27.8911 109.052Z" fill="#F4B542" stroke="#DC8433" stroke-width="2"/>
<path d="M9.07592 85.8267C2.84233 85.3524 2.84233 76.2121 9.07593 75.7378V75.7378C11.5672 75.5482 13.547 73.5684 13.7365 71.0772V71.0772C14.2109 64.8436 23.3511 64.8436 23.8254 71.0772V71.0772C24.015 73.5684 25.9948 75.5482 28.4861 75.7378V75.7378C34.7197 76.2121 34.7196 85.3524 28.4861 85.8267V85.8267C25.9948 86.0163 24.015 87.9961 23.8254 90.4873V90.4873C23.3511 96.7209 14.2109 96.7209 13.7365 90.4873V90.4873C13.547 87.9961 11.5672 86.0163 9.07592 85.8267V85.8267Z" fill="#EC6973"/>
<path d="M21.6094 77.9529C23.1715 79.515 23.1715 82.0477 21.6094 83.6098C20.0473 85.1719 17.5147 85.1719 15.9526 83.6098C14.3905 82.0477 14.3905 79.515 15.9526 77.9529C17.5147 76.3909 20.0473 76.3909 21.6094 77.9529Z" fill="#F4B542" stroke="#DC8433" stroke-width="2"/>
<path d="M16.9291 48.4323C11.7678 44.9047 16.3379 36.989 21.9735 39.695V39.695C24.2258 40.7765 26.9302 40.0518 28.34 37.9891V37.9891C31.8676 32.8278 39.7833 37.398 37.0773 43.0336V43.0336C35.9958 45.2858 36.7205 47.9903 38.7832 49.4001V49.4001C43.9445 52.9277 39.3743 60.8434 33.7387 58.1373V58.1373C31.4865 57.0559 28.782 57.7805 27.3722 59.8433V59.8433C23.8446 65.0045 15.9289 60.4344 18.635 54.7988V54.7988C19.7164 52.5465 18.9918 49.8421 16.9291 48.4323V48.4323Z" fill="#EC6973"/>
<path d="M31.7203 47.8802C32.292 50.014 31.0257 52.2074 28.8918 52.7792C26.758 53.3509 24.5646 52.0846 23.9929 49.9507C23.4211 47.8169 24.6874 45.6235 26.8213 45.0518C28.9552 44.48 31.1485 45.7463 31.7203 47.8802Z" fill="#F4B542" stroke="#DC8433" stroke-width="2"/>
<path d="M42.4279 19.9739C39.7219 14.3382 47.6376 9.76812 51.1652 14.9294V14.9294C52.575 16.9921 55.2794 17.7168 57.5317 16.6353V16.6353C63.1673 13.9293 67.7374 21.845 62.5761 25.3726V25.3726C60.5134 26.7824 59.7888 29.4868 60.8702 31.7391V31.7391C63.5763 37.3747 55.6606 41.9448 52.133 36.7835V36.7835C50.7232 34.7208 48.0187 33.9962 45.7665 35.0776V35.0776C40.1309 37.7836 35.5607 29.8679 40.722 26.3404V26.3404C42.7847 24.9306 43.5094 22.2261 42.4279 19.9739V19.9739Z" fill="#EC6973"/>
<path d="M55.5136 26.8913C54.9418 29.0252 52.7484 30.2915 50.6146 29.7198C48.4807 29.148 47.2144 26.9546 47.7862 24.8208C48.3579 22.6869 50.5513 21.4206 52.6851 21.9923C54.819 22.5641 56.0853 24.7575 55.5136 26.8913Z" fill="#F4B542" stroke="#DC8433" stroke-width="2"/>
<path d="M78.7384 8.07702C79.2127 1.84343 88.353 1.84343 88.8273 8.07703V8.07703C89.0168 10.5683 90.9966 12.5481 93.4879 12.7376V12.7376C99.7215 13.212 99.7215 22.3522 93.4879 22.8265V22.8265C90.9966 23.0161 89.0168 24.9959 88.8273 27.4872V27.4872C88.353 33.7208 79.2127 33.7207 78.7384 27.4872V27.4872C78.5488 24.9959 76.569 23.0161 74.0778 22.8265V22.8265C67.8442 22.3522 67.8442 13.212 74.0778 12.7376V12.7376C76.569 12.5481 78.5488 10.5683 78.7384 8.07702V8.07702Z" fill="#EC6973"/>
<path d="M86.6121 20.6105C85.05 22.1726 82.5174 22.1726 80.9553 20.6105C79.3932 19.0484 79.3932 16.5158 80.9553 14.9537C82.5174 13.3916 85.05 13.3916 86.6121 14.9537C88.1742 16.5158 88.1742 19.0484 86.6121 20.6105Z" fill="#F4B542" stroke="#DC8433" stroke-width="2"/>
<path d="M65.6536 37.3799C64.4984 31.2359 73.3272 28.8702 75.3987 34.7687V34.7687C76.2266 37.126 78.6513 38.5259 81.1068 38.0642V38.0642C87.2507 36.909 89.6164 45.7378 83.718 47.8093V47.8093C81.3607 48.6372 79.9607 51.062 80.4224 53.5174V53.5174C81.5776 59.6614 72.7488 62.027 70.6773 56.1286V56.1286C69.8494 53.7713 67.4246 52.3714 64.9692 52.8331V52.8331C58.8253 53.9883 56.4596 45.1594 62.358 43.0879V43.0879C64.7153 42.26 66.1152 39.8353 65.6536 37.3799V37.3799Z" fill="#EC6973"/>
<path d="M76.5029 47.4484C75.3984 49.3616 72.952 50.0171 71.0388 48.9125C69.1257 47.808 68.4702 45.3616 69.5747 43.4484C70.6793 41.5353 73.1257 40.8798 75.0388 41.9843C76.952 43.0889 77.6075 45.5353 76.5029 47.4484Z" fill="#F4B542" stroke="#DC8433" stroke-width="2"/>
<path d="M46.6536 56.3799C45.4984 50.2359 54.3272 47.8702 56.3987 53.7687V53.7687C57.2266 56.126 59.6513 57.5259 62.1068 57.0642V57.0642C68.2507 55.909 70.6164 64.7378 64.718 66.8093V66.8093C62.3607 67.6372 60.9607 70.062 61.4224 72.5174V72.5174C62.5776 78.6614 53.7488 81.027 51.6773 75.1286V75.1286C50.8494 72.7713 48.4246 71.3714 45.9692 71.8331V71.8331C39.8253 72.9883 37.4596 64.1594 43.358 62.0879V62.0879C45.7153 61.26 47.1152 58.8353 46.6536 56.3799V56.3799Z" fill="#EC6973"/>
<path d="M57.5029 66.4484C56.3984 68.3616 53.952 69.0171 52.0388 67.9125C50.1257 66.808 49.4702 64.3616 50.5747 62.4484C51.6793 60.5353 54.1257 59.8798 56.0388 60.9843C57.952 62.0889 58.6075 64.5353 57.5029 66.4484Z" fill="#F4B542" stroke="#DC8433" stroke-width="2"/>
<path d="M39.6536 82.3799C38.4984 76.2359 47.3272 73.8702 49.3987 79.7687V79.7687C50.2266 82.126 52.6513 83.5259 55.1068 83.0642V83.0642C61.2507 81.909 63.6164 90.7378 57.718 92.8093V92.8093C55.3607 93.6372 53.9607 96.062 54.4224 98.5174V98.5174C55.5776 104.661 46.7488 107.027 44.6773 101.129V101.129C43.8494 98.7713 41.4246 97.3714 38.9692 97.8331V97.8331C32.8253 98.9883 30.4596 90.1594 36.358 88.0879V88.0879C38.7153 87.26 40.1152 84.8353 39.6536 82.3799V82.3799Z" fill="#EC6973"/>
<path d="M50.5029 92.4484C49.3984 94.3616 46.952 95.0171 45.0388 93.9125C43.1257 92.808 42.4702 90.3616 43.5747 88.4484C44.6793 86.5353 47.1257 85.8798 49.0388 86.9843C50.952 88.0889 51.6075 90.5353 50.5029 92.4484Z" fill="#F4B542" stroke="#DC8433" stroke-width="2"/>
<path d="M59.6536 102.38C58.4984 96.2359 67.3272 93.8702 69.3987 99.7687V99.7687C70.2266 102.126 72.6513 103.526 75.1068 103.064V103.064C81.2507 101.909 83.6164 110.738 77.718 112.809V112.809C75.3607 113.637 73.9607 116.062 74.4224 118.517V118.517C75.5776 124.661 66.7488 127.027 64.6773 121.129V121.129C63.8494 118.771 61.4246 117.371 58.9692 117.833V117.833C52.8253 118.988 50.4596 110.159 56.358 108.088V108.088C58.7153 107.26 60.1152 104.835 59.6536 102.38V102.38Z" fill="#EC6973"/>
<path d="M70.5029 112.448C69.3984 114.362 66.952 115.017 65.0388 113.913C63.1257 112.808 62.4702 110.362 63.5747 108.448C64.6793 106.535 67.1257 105.88 69.0388 106.984C70.952 108.089 71.6075 110.535 70.5029 112.448Z" fill="#F4B542" stroke="#DC8433" stroke-width="2"/>
<path d="M85.6536 110.38C84.4984 104.236 93.3272 101.87 95.3987 107.769V107.769C96.2266 110.126 98.6513 111.526 101.107 111.064V111.064C107.251 109.909 109.616 118.738 103.718 120.809V120.809C101.361 121.637 99.9607 124.062 100.422 126.517V126.517C101.578 132.661 92.7488 135.027 90.6773 129.129V129.129C89.8494 126.771 87.4246 125.371 84.9692 125.833V125.833C78.8253 126.988 76.4596 118.159 82.358 116.088V116.088C84.7153 115.26 86.1152 112.835 85.6536 110.38V110.38Z" fill="#EC6973"/>
<path d="M96.5029 120.448C95.3984 122.362 92.952 123.017 91.0388 121.913C89.1257 120.808 88.4702 118.362 89.5747 116.448C90.6793 114.535 93.1257 113.88 95.0388 114.984C96.952 116.089 97.6075 118.535 96.5029 120.448Z" fill="#F4B542" stroke="#DC8433" stroke-width="2"/>
<path d="M106.654 91.3799C105.498 85.2359 114.327 82.8702 116.399 88.7687V88.7687C117.227 91.126 119.651 92.5259 122.107 92.0642V92.0642C128.251 90.909 130.616 99.7378 124.718 101.809V101.809C122.361 102.637 120.961 105.062 121.422 107.517V107.517C122.578 113.661 113.749 116.027 111.677 110.129V110.129C110.849 107.771 108.425 106.371 105.969 106.833V106.833C99.8253 107.988 97.4596 99.1594 103.358 97.0879V97.0879C105.715 96.26 107.115 93.8353 106.654 91.3799V91.3799Z" fill="#EC6973"/>
<path d="M117.503 101.448C116.398 103.362 113.952 104.017 112.039 102.913C110.126 101.808 109.47 99.3616 110.575 97.4484C111.679 95.5353 114.126 94.8798 116.039 95.9843C117.952 97.0889 118.608 99.5353 117.503 101.448Z" fill="#F4B542" stroke="#DC8433" stroke-width="2"/>
<path d="M112.654 65.3799C111.498 59.2359 120.327 56.8702 122.399 62.7687V62.7687C123.227 65.126 125.651 66.5259 128.107 66.0642V66.0642C134.251 64.909 136.616 73.7378 130.718 75.8093V75.8093C128.361 76.6372 126.961 79.062 127.422 81.5174V81.5174C128.578 87.6614 119.749 90.027 117.677 84.1286V84.1286C116.849 81.7713 114.425 80.3714 111.969 80.8331V80.8331C105.825 81.9883 103.46 73.1594 109.358 71.0879V71.0879C111.715 70.26 113.115 67.8353 112.654 65.3799V65.3799Z" fill="#EC6973"/>
<path d="M123.503 75.4484C122.398 77.3616 119.952 78.0171 118.039 76.9125C116.126 75.808 115.47 73.3616 116.575 71.4484C117.679 69.5353 120.126 68.8798 122.039 69.9843C123.952 71.0889 124.608 73.5353 123.503 75.4484Z" fill="#F4B542" stroke="#DC8433" stroke-width="2"/>
<path d="M93.6536 42.3799C92.4984 36.2359 101.327 33.8702 103.399 39.7687V39.7687C104.227 42.126 106.651 43.5259 109.107 43.0642V43.0642C115.251 41.909 117.616 50.7378 111.718 52.8093V52.8093C109.361 53.6372 107.961 56.062 108.422 58.5174V58.5174C109.578 64.6614 100.749 67.027 98.6773 61.1286V61.1286C97.8494 58.7713 95.4246 57.3714 92.9692 57.8331V57.8331C86.8253 58.9883 84.4596 50.1594 90.358 48.0879V48.0879C92.7153 47.26 94.1152 44.8353 93.6536 42.3799V42.3799Z" fill="#EC6973"/>
<path d="M104.503 52.4484C103.398 54.3616 100.952 55.0171 99.0388 53.9125C97.1257 52.808 96.4702 50.3616 97.5747 48.4484C98.6793 46.5353 101.126 45.8798 103.039 46.9843C104.952 48.0889 105.608 50.5353 104.503 52.4484Z" fill="#F4B542" stroke="#DC8433" stroke-width="2"/>
<path d="M79.7384 70.077C80.2127 63.8434 89.353 63.8434 89.8273 70.077V70.077C90.0168 72.5683 91.9966 74.5481 94.4879 74.7376V74.7376C100.721 75.212 100.721 84.3522 94.4879 84.8265V84.8265C91.9966 85.0161 90.0168 86.9959 89.8273 89.4872V89.4872C89.353 95.7208 80.2127 95.7207 79.7384 89.4872V89.4872C79.5488 86.9959 77.569 85.0161 75.0778 84.8265V84.8265C68.8442 84.3522 68.8442 75.212 75.0778 74.7376V74.7376C77.569 74.5481 79.5488 72.5683 79.7384 70.077V70.077Z" fill="#EC6973"/>
<path d="M87.6121 82.6105C86.05 84.1726 83.5174 84.1726 81.9553 82.6105C80.3932 81.0484 80.3932 78.5158 81.9553 76.9537C83.5174 75.3916 86.05 75.3916 87.6121 76.9537C89.1742 78.5158 89.1742 81.0484 87.6121 82.6105Z" fill="#F4B542" stroke="#DC8433" stroke-width="2"/>
</svg>
