<svg width="719" height="333" viewBox="0 0 719 333" fill="none" xmlns="http://www.w3.org/2000/svg">
<path d="M546 197L449.503 197C418.966 197 390.872 181.735 390.872 146.931C390.872 103.457 390.872 -52.1713 390.872 -62.5514C390.872 -99.1869 379.268 -123 330.409 -123C269.336 -123 134.362 -123 -1.39876e-05 -123" stroke="#638A4E" stroke-width="2"/>
<ellipse cx="316.196" cy="69.804" rx="48" ry="64" transform="rotate(-135 316.196 69.804)" fill="#3C652F"/>
<path d="M280 104L437 -53" stroke="#74AA63" stroke-width="2"/>
<path fill-rule="evenodd" clip-rule="evenodd" d="M667.842 223.351C673.001 226.914 679.258 229 686.002 229C703.675 229 718.002 214.673 718.002 197C718.002 179.327 703.675 165 686.002 165C679.259 165 673.002 167.086 667.843 170.648C646.36 182.402 602.002 193.267 602.002 193.267L602.002 200.733C602.002 200.733 646.358 211.597 667.842 223.351Z" fill="#EB5A35"/>
<path fill-rule="evenodd" clip-rule="evenodd" d="M624.067 276.331C625.196 282.498 628.145 288.398 632.914 293.167C645.411 305.663 665.672 305.663 678.169 293.167C690.665 280.67 690.665 260.409 678.169 247.912C673.4 243.143 667.502 240.195 661.335 239.065C637.832 232.186 598.784 208.502 598.784 208.502L593.504 213.782C593.504 213.782 617.187 252.828 624.067 276.331Z" fill="#EB5A35"/>
<path fill-rule="evenodd" clip-rule="evenodd" d="M555.651 282.84C552.088 287.999 550.002 294.256 550.002 301C550.002 318.673 564.329 333 582.002 333C599.675 333 614.002 318.673 614.002 301C614.002 294.257 611.916 288 608.354 282.841C596.6 261.358 585.735 217 585.735 217L578.269 217C578.269 217 567.405 261.356 555.651 282.84Z" fill="#EB5A35"/>
<path fill-rule="evenodd" clip-rule="evenodd" d="M502.67 239.065C496.503 240.194 490.603 243.143 485.835 247.912C473.338 260.409 473.338 280.67 485.835 293.167C498.331 305.663 518.593 305.663 531.089 293.167C535.858 288.398 538.807 282.5 539.936 276.333C546.816 252.83 570.499 213.782 570.499 213.782L565.219 208.502C565.219 208.502 526.173 232.185 502.67 239.065Z" fill="#EB5A35"/>
<path fill-rule="evenodd" clip-rule="evenodd" d="M496.16 170.649C491.001 167.086 484.744 165 478 165C460.327 165 446 179.327 446 197C446 214.673 460.327 229 478 229C484.743 229 491 226.914 496.159 223.352C517.642 211.598 562 200.733 562 200.733L562 193.267C562 193.267 517.644 182.403 496.16 170.649Z" fill="#EB5A35"/>
<path fill-rule="evenodd" clip-rule="evenodd" d="M539.935 117.669C538.806 111.502 535.857 105.602 531.088 100.834C518.591 88.3369 498.33 88.3369 485.833 100.834C473.337 113.33 473.337 133.592 485.833 146.088C490.602 150.857 496.5 153.806 502.667 154.935C526.17 161.815 565.218 185.498 565.218 185.498L570.498 180.218C570.498 180.218 546.815 141.172 539.935 117.669Z" fill="#EB5A35"/>
<path fill-rule="evenodd" clip-rule="evenodd" d="M608.351 111.16C611.914 106.001 614 99.7443 614 93.0002C614 75.3271 599.673 61.0002 582 61.0002C564.327 61.0002 550 75.3271 550 93.0002C550 99.7437 552.086 106 555.648 111.159C567.402 132.643 578.267 177 578.267 177L585.733 177C585.733 177 596.597 132.645 608.351 111.16Z" fill="#EB5A35"/>
<path fill-rule="evenodd" clip-rule="evenodd" d="M661.334 154.935C667.501 153.806 673.401 150.857 678.169 146.088C690.666 133.591 690.666 113.33 678.169 100.833C665.673 88.3366 645.411 88.3366 632.914 100.833C628.146 105.602 625.197 111.5 624.068 117.667C617.188 141.17 593.505 180.218 593.505 180.218L598.785 185.498C598.785 185.498 637.831 161.815 661.334 154.935Z" fill="#EB5A35"/>
<path d="M579.458 171.653C579.717 168.533 584.283 168.533 584.542 171.653C584.754 174.207 588.178 174.888 589.352 172.609C590.785 169.826 595.003 171.573 594.049 174.555C593.267 176.996 596.17 178.936 598.126 177.279C600.515 175.256 603.744 178.485 601.721 180.874C600.064 182.83 602.004 185.733 604.445 184.952C607.427 183.997 609.174 188.215 606.391 189.648C604.112 190.822 604.793 194.246 607.347 194.458C610.467 194.717 610.467 199.283 607.347 199.542C604.793 199.754 604.112 203.178 606.391 204.352C609.174 205.785 607.427 210.003 604.445 209.049C602.004 208.267 600.064 211.17 601.721 213.126C603.744 215.515 600.515 218.744 598.126 216.721C596.17 215.064 593.267 217.004 594.048 219.445C595.003 222.427 590.785 224.174 589.352 221.391C588.178 219.112 584.754 219.793 584.542 222.347C584.283 225.467 579.717 225.467 579.458 222.347C579.246 219.793 575.822 219.112 574.648 221.391C573.215 224.174 568.997 222.427 569.952 219.445C570.733 217.004 567.83 215.064 565.874 216.721C563.485 218.744 560.256 215.515 562.279 213.126C563.936 211.17 561.996 208.267 559.555 209.049C556.573 210.003 554.826 205.785 557.609 204.352C559.888 203.178 559.207 199.754 556.653 199.542C553.533 199.283 553.533 194.717 556.653 194.458C559.207 194.246 559.888 190.822 557.609 189.648C554.826 188.215 556.573 183.997 559.555 184.952C561.996 185.733 563.936 182.83 562.279 180.874C560.256 178.485 563.485 175.256 565.874 177.279C567.83 178.936 570.733 176.996 569.952 174.555C568.997 171.573 573.215 169.826 574.648 172.609C575.822 174.888 579.246 174.207 579.458 171.653Z" fill="#F4B442"/>
<path d="M611.699 167.301L582.001 197" stroke="#DC8433" stroke-width="2"/>
<circle cx="611.699" cy="167.301" r="6" transform="rotate(45 611.699 167.301)" fill="#F4B442"/>
<path d="M620.803 180.927L582 197" stroke="#DC8433" stroke-width="2"/>
<circle cx="620.804" cy="180.927" r="6" transform="rotate(67.5 620.804 180.927)" fill="#F4B442"/>
<path d="M624 197L582 197" stroke="#DC8433" stroke-width="2"/>
<circle cx="624" cy="197" r="6" transform="rotate(90 624 197)" fill="#F4B442"/>
<path d="M620.803 213.073L582 197" stroke="#DC8433" stroke-width="2"/>
<circle cx="620.803" cy="213.073" r="6" transform="rotate(112.5 620.803 213.073)" fill="#F4B442"/>
<path d="M611.699 226.698L582.001 197" stroke="#DC8433" stroke-width="2"/>
<circle cx="611.698" cy="226.698" r="6" transform="rotate(135 611.698 226.698)" fill="#F4B442"/>
<path d="M598.072 235.803L582 197" stroke="#DC8433" stroke-width="2"/>
<circle cx="598.073" cy="235.803" r="6" transform="rotate(157.5 598.073 235.803)" fill="#F4B442"/>
<path d="M582 239L582 197" stroke="#DC8433" stroke-width="2"/>
<circle cx="582" cy="239" r="6" transform="rotate(180 582 239)" fill="#F4B442"/>
<path d="M565.928 235.803L582 197" stroke="#DC8433" stroke-width="2"/>
<circle cx="565.929" cy="235.803" r="6" transform="rotate(-157.5 565.929 235.803)" fill="#F4B442"/>
<path d="M552.303 226.698L582.001 197" stroke="#DC8433" stroke-width="2"/>
<circle cx="552.303" cy="226.699" r="6" transform="rotate(-135 552.303 226.699)" fill="#F4B442"/>
<path d="M543.199 213.073L582.002 197" stroke="#DC8433" stroke-width="2"/>
<circle cx="543.198" cy="213.073" r="6" transform="rotate(-112.5 543.198 213.073)" fill="#F4B442"/>
<path d="M540 197L582 197" stroke="#DC8433" stroke-width="2"/>
<circle cx="540" cy="197" r="6" transform="rotate(-90 540 197)" fill="#F4B442"/>
<path d="M543.199 180.927L582.002 197" stroke="#DC8433" stroke-width="2"/>
<circle cx="543.199" cy="180.927" r="6" transform="rotate(-67.5 543.199 180.927)" fill="#F4B442"/>
<path d="M552.303 167.302L582.001 197" stroke="#DC8433" stroke-width="2"/>
<circle cx="552.304" cy="167.302" r="6" transform="rotate(-45 552.304 167.302)" fill="#F4B442"/>
<path d="M565.93 158.197L582.002 197" stroke="#DC8433" stroke-width="2"/>
<circle cx="565.93" cy="158.197" r="6" transform="rotate(-22.5 565.93 158.197)" fill="#F4B442"/>
<path d="M582.002 155V197" stroke="#DC8433" stroke-width="2"/>
<circle cx="582.002" cy="155" r="6" fill="#F4B442"/>
<path d="M598.072 158.197L582 197" stroke="#DC8433" stroke-width="2"/>
<circle cx="598.071" cy="158.197" r="6" transform="rotate(22.5 598.071 158.197)" fill="#F4B442"/>
</svg>
