<svg width="299" height="537" viewBox="0 0 299 537" fill="none" xmlns="http://www.w3.org/2000/svg">
<path d="M182 258C182 227.072 156.928 202 126 202H70V258C70 288.928 95.0721 314 126 314H182V258Z" fill="#74AA63"/>
<path d="M180 312C144 291.85 72 243.64 72 204" stroke="#638A4E" stroke-width="2" stroke-linecap="round"/>
<path d="M197 172V268.497C197 299.034 181.735 327.128 146.931 327.128C103.457 327.128 71.8287 327.128 61.4486 327.128C24.8131 327.128 1 338.732 1 387.591C1 448.664 1 583.638 1 718" stroke="#638A4E" stroke-width="2"/>
<path d="M207.646 243.497C223.11 216.713 257.36 207.536 284.144 223L298 231L290 244.856C274.536 271.641 240.287 280.818 213.503 265.354L199.646 257.354L207.646 243.497Z" fill="#74AA63"/>
<path d="M201.403 256.883C227.922 257.236 283.503 253.539 296.244 231.471" stroke="#638A4E" stroke-width="2" stroke-linecap="round"/>
<path fill-rule="evenodd" clip-rule="evenodd" d="M197.191 53.1963C214.34 61.9936 233.654 79.2222 250.226 102.033C280.681 143.949 273.997 174.479 246.861 167.95C244.891 195.624 213.584 192.698 183.13 150.781C167.213 128.874 156.974 106.153 153.471 87.5313L139.963 31.354C138.569 25.5566 144.889 20.9743 149.966 24.1018L197.191 53.1963Z" fill="#C86EAC"/>
<path fill-rule="evenodd" clip-rule="evenodd" d="M241.175 85.2505C238.107 104.279 227.69 127.971 211.117 150.781C180.663 192.698 149.563 195.775 147.386 167.95C120.458 174.628 113.566 143.949 144.021 102.033C159.938 80.1248 178.382 63.3659 195.01 54.2801L244.264 24.0734C249.346 20.9562 255.658 25.5513 254.252 31.3458L241.175 85.2505Z" fill="#C86EAC"/>
<path fill-rule="evenodd" clip-rule="evenodd" d="M224.281 136.988C205.236 139.951 179.485 137.365 152.669 128.652C103.393 112.641 90.8561 84.0142 116.647 73.3457C101.974 49.7989 129.022 33.7644 178.298 49.7752C204.052 58.1432 225.691 70.5065 239.47 83.5126L283.418 121.021C287.954 124.892 285.534 132.314 279.588 132.768L224.281 136.988Z" fill="#C86EAC"/>
<path fill-rule="evenodd" clip-rule="evenodd" d="M169.855 136.91C161.152 119.712 155.654 94.4222 155.654 66.2268C155.654 14.4149 179.006 -6.35499 197.122 14.8771C214.983 -6.35424 238.59 14.4149 238.59 66.2268C238.59 93.3064 233.519 117.706 225.407 134.83L203.315 188.218C201.036 193.728 193.229 193.72 190.96 188.206L169.855 136.91Z" fill="#C86EAC"/>
<path fill-rule="evenodd" clip-rule="evenodd" d="M153.113 85.1234C166.779 71.5321 189.132 58.488 215.948 49.7752C265.224 33.7644 292.193 49.5551 277.599 73.3457C303.31 83.7709 290.853 112.641 241.576 128.652C215.822 137.02 191.05 139.737 172.257 137.314L114.655 132.801C108.711 132.335 106.306 124.908 110.849 121.047L153.113 85.1234Z" fill="#C86EAC"/>
<path d="M190.538 62.7893C191.468 55.6243 201.841 55.6243 202.77 62.7893C203.439 67.9452 209.796 70.0107 213.367 66.2326C218.331 60.9823 226.723 67.0793 223.263 73.4222C220.774 77.9865 224.702 83.394 229.813 82.4368C236.914 81.1066 240.119 90.9717 233.592 94.0698C228.895 96.2991 228.895 102.983 233.592 105.212C240.119 108.31 236.914 118.176 229.813 116.845C224.702 115.888 220.774 121.296 223.263 125.86C226.723 132.203 218.331 138.3 213.367 133.05C209.796 129.272 203.439 131.337 202.77 136.493C201.841 143.658 191.468 143.658 190.538 136.493C189.87 131.337 183.513 129.272 179.941 133.05C174.978 138.3 166.586 132.203 170.046 125.86C172.535 121.296 168.606 115.888 163.496 116.845C156.395 118.176 153.189 108.31 159.716 105.212C164.413 102.983 164.413 96.2991 159.716 94.0698C153.189 90.9717 156.395 81.1066 163.496 82.4368C168.606 83.394 172.535 77.9865 170.046 73.4222C166.586 67.0793 174.978 60.9823 179.941 66.2326C183.513 70.0107 189.87 67.9452 190.538 62.7893Z" fill="#F4B442"/>
<path d="M224.541 83.688L168.953 115.782" stroke="#DC8433" stroke-width="2" stroke-linecap="round"/>
<path d="M228.842 99.7349L164.654 99.7349" stroke="#DC8433" stroke-width="2" stroke-linecap="round"/>
<path d="M224.541 115.782L168.953 83.688" stroke="#DC8433" stroke-width="2" stroke-linecap="round"/>
<path d="M212.795 127.529L180.701 71.9409" stroke="#DC8433" stroke-width="2" stroke-linecap="round"/>
<path d="M196.748 131.829L196.748 67.6411" stroke="#DC8433" stroke-width="2" stroke-linecap="round"/>
<path d="M180.701 127.529L212.795 71.9409" stroke="#DC8433" stroke-width="2" stroke-linecap="round"/>
<path d="M168.955 115.782L224.543 83.688" stroke="#DC8433" stroke-width="2" stroke-linecap="round"/>
<path d="M164.654 99.7349H228.842" stroke="#DC8433" stroke-width="2" stroke-linecap="round"/>
<path d="M168.953 83.688L224.541 115.782" stroke="#DC8433" stroke-width="2" stroke-linecap="round"/>
<path d="M180.7 71.9409L212.794 127.529" stroke="#DC8433" stroke-width="2" stroke-linecap="round"/>
</svg>
