<svg width="345" height="686" viewBox="0 0 345 686" fill="none" xmlns="http://www.w3.org/2000/svg">
<circle cx="158.572" cy="368.481" r="46.1744" transform="rotate(-30 158.572 368.481)" fill="#74AA63"/>
<path d="M192.278 426.86L140.333 411.089L204.408 374.095L192.278 426.86Z" fill="#74AA63"/>
<circle cx="110.825" cy="285.779" r="46.1744" transform="rotate(-30 110.825 285.779)" fill="#74AA63"/>
<path d="M144.531 344.157L92.5858 328.386L156.661 291.392L144.531 344.157Z" fill="#74AA63"/>
<circle cx="63.0757" cy="203.076" r="46.1744" transform="rotate(-30 63.0757 203.076)" fill="#74AA63"/>
<path d="M96.7815 261.454L44.8365 245.683L108.912 208.689L96.7815 261.454Z" fill="#74AA63"/>
<path d="M57.02 192.021L233 497" stroke="#638A4E" stroke-width="2"/>
<path d="M233 167L233 720.5" stroke="#638A4E" stroke-width="2"/>
<path fill-rule="evenodd" clip-rule="evenodd" d="M276.753 117.328C284.5 119.693 291.571 124.504 296.699 131.562C309.239 148.822 305.412 172.98 288.153 185.52C270.893 198.06 246.735 194.233 234.195 176.974C229.067 169.916 226.676 161.704 226.821 153.606L226.678 153.71L226.876 152.118C226.975 150.363 227.193 148.616 227.528 146.891L232.3 108.643L268.898 115.793C271.557 116.032 274.187 116.545 276.744 117.325L276.754 117.327L276.753 117.328Z" fill="#FAE0BE"/>
<path fill-rule="evenodd" clip-rule="evenodd" d="M237.504 151.994C237.649 160.093 235.258 168.304 230.13 175.362C217.59 192.622 193.432 196.448 176.172 183.908C158.912 171.368 155.086 147.211 167.626 129.951C172.754 122.893 179.825 118.081 187.572 115.717L187.429 115.613L189.003 115.31C190.704 114.861 192.433 114.529 194.177 114.314L232.027 107.033L236.537 144.05C237.13 146.652 237.455 149.312 237.504 151.985L237.505 151.995L237.504 151.994Z" fill="#FAE0BE"/>
<path fill-rule="evenodd" clip-rule="evenodd" d="M192.407 125.377C184.749 128.018 176.201 128.281 167.904 125.585C147.613 118.993 136.509 97.1997 143.102 76.9095C149.695 56.6193 171.488 45.5153 191.778 52.108C200.075 54.8039 206.836 60.0415 211.479 66.6787L211.534 66.5102L212.308 67.9143C213.261 69.393 214.111 70.9344 214.854 72.5269L233.475 106.274L199.664 122.002C197.372 123.371 194.942 124.502 192.415 125.374L192.406 125.379L192.407 125.377Z" fill="#FAE0BE"/>
<path fill-rule="evenodd" clip-rule="evenodd" d="M203.786 74.2607C198.908 67.7939 196.016 59.7453 196.016 51.0212C196.016 29.6869 213.311 12.392 234.645 12.392C255.98 12.392 273.274 29.6869 273.274 51.0212C273.274 59.7453 270.382 67.7939 265.505 74.2607H265.682L264.586 75.4315C263.474 76.7938 262.271 78.0789 260.986 79.2774L234.644 107.416L209.238 80.1197C207.228 78.3632 205.401 76.4019 203.791 74.2682L203.784 74.2607H203.786Z" fill="#FAE0BE"/>
<path fill-rule="evenodd" clip-rule="evenodd" d="M255.912 69.2858C260.555 62.6486 267.316 57.4109 275.613 54.7151C295.903 48.1224 317.696 59.2264 324.289 79.5166C330.882 99.8067 319.778 121.6 299.487 128.192C291.19 130.888 282.642 130.625 274.984 127.984L275.039 128.153L273.587 127.472C271.948 126.836 270.354 126.088 268.817 125.237L233.916 108.88L252.025 76.2817C253.074 73.8273 254.375 71.4842 255.907 69.2935L255.912 69.2845L255.912 69.2858Z" fill="#FAE0BE"/>
<path d="M230.458 82.6525C230.717 79.5327 235.283 79.5327 235.542 82.6525C235.754 85.2069 239.178 85.8881 240.351 83.6092C241.784 80.8259 246.003 82.5734 245.048 85.5547C244.266 87.9958 247.17 89.9357 249.126 88.2792C251.515 86.2561 254.744 89.4851 252.721 91.874C251.064 93.8301 253.004 96.7333 255.445 95.9515C258.426 94.9966 260.174 99.2155 257.391 100.648C255.112 101.822 255.793 105.246 258.347 105.458C261.467 105.717 261.467 110.283 258.347 110.542C255.793 110.754 255.112 114.178 257.391 115.352C260.174 116.785 258.426 121.003 255.445 120.049C253.004 119.267 251.064 122.17 252.721 124.126C254.744 126.515 251.515 129.744 249.126 127.721C247.17 126.064 244.266 128.004 245.048 130.445C246.003 133.427 241.784 135.174 240.351 132.391C239.178 130.112 235.754 130.793 235.542 133.347C235.283 136.467 230.717 136.467 230.458 133.347C230.246 130.793 226.821 130.112 225.648 132.391C224.215 135.174 219.996 133.427 220.951 130.445C221.733 128.004 218.83 126.064 216.874 127.721C214.485 129.744 211.256 126.515 213.279 124.126C214.935 122.17 212.996 119.267 210.554 120.049C207.573 121.003 205.826 116.785 208.609 115.352C210.888 114.178 210.207 110.754 207.652 110.542C204.532 110.283 204.532 105.717 207.652 105.458C210.207 105.246 210.888 101.822 208.609 100.648C205.826 99.2155 207.573 94.9966 210.554 95.9515C212.996 96.7333 214.935 93.8301 213.279 91.874C211.256 89.4851 214.485 86.2561 216.874 88.2792C218.83 89.9357 221.733 87.9958 220.951 85.5547C219.996 82.5734 224.215 80.8259 225.648 83.6092C226.821 85.8881 230.246 85.2069 230.458 82.6525Z" fill="#F4B442"/>
<path d="M262.699 78.3015L233 108" stroke="#DC8433" stroke-width="2"/>
<circle cx="262.699" cy="78.3014" r="6" transform="rotate(45 262.699 78.3014)" fill="#F4B442"/>
<path d="M271.802 91.9272L233 108" stroke="#DC8433" stroke-width="2"/>
<circle cx="271.803" cy="91.9273" r="6" transform="rotate(67.5 271.803 91.9273)" fill="#F4B442"/>
<path d="M275 108L233 108" stroke="#DC8433" stroke-width="2"/>
<circle cx="275" cy="108" r="6" transform="rotate(90 275 108)" fill="#F4B442"/>
<path d="M271.802 124.073L233 108" stroke="#DC8433" stroke-width="2"/>
<circle cx="271.803" cy="124.073" r="6" transform="rotate(112.5 271.803 124.073)" fill="#F4B442"/>
<path d="M262.699 137.698L233 108" stroke="#DC8433" stroke-width="2"/>
<circle cx="262.698" cy="137.698" r="6" transform="rotate(135 262.698 137.698)" fill="#F4B442"/>
<path d="M249.072 146.803L232.999 108" stroke="#DC8433" stroke-width="2"/>
<circle cx="249.073" cy="146.803" r="6" transform="rotate(157.5 249.073 146.803)" fill="#F4B442"/>
<path d="M233 150L233 108" stroke="#DC8433" stroke-width="2"/>
<circle cx="233" cy="150" r="6" transform="rotate(180 233 150)" fill="#F4B442"/>
<path d="M216.927 146.803L233 108" stroke="#DC8433" stroke-width="2"/>
<circle cx="216.928" cy="146.803" r="6" transform="rotate(-157.5 216.928 146.803)" fill="#F4B442"/>
<path d="M203.302 137.698L233.001 108" stroke="#DC8433" stroke-width="2"/>
<circle cx="203.302" cy="137.699" r="6" transform="rotate(-135 203.302 137.699)" fill="#F4B442"/>
<path d="M194.199 124.073L233.002 108" stroke="#DC8433" stroke-width="2"/>
<circle cx="194.198" cy="124.073" r="6" transform="rotate(-112.5 194.198 124.073)" fill="#F4B442"/>
<path d="M191 108L233 108" stroke="#DC8433" stroke-width="2"/>
<circle cx="191" cy="108" r="6" transform="rotate(-90 191 108)" fill="#F4B442"/>
<path d="M194.199 91.9272L233.002 108" stroke="#DC8433" stroke-width="2"/>
<circle cx="194.199" cy="91.9273" r="6" transform="rotate(-67.5 194.199 91.9273)" fill="#F4B442"/>
<path d="M203.302 78.3015L233.001 108" stroke="#DC8433" stroke-width="2"/>
<circle cx="203.303" cy="78.3015" r="6" transform="rotate(-45 203.303 78.3015)" fill="#F4B442"/>
<path d="M216.929 69.1971L233.002 108" stroke="#DC8433" stroke-width="2"/>
<circle cx="216.929" cy="69.1971" r="6" transform="rotate(-22.5 216.929 69.1971)" fill="#F4B442"/>
<path d="M233.002 66V108" stroke="#DC8433" stroke-width="2"/>
<circle cx="233.002" cy="66" r="6" fill="#F4B442"/>
<path d="M249.072 69.197L232.999 108" stroke="#DC8433" stroke-width="2"/>
<circle cx="249.071" cy="69.197" r="6" transform="rotate(22.5 249.071 69.197)" fill="#F4B442"/>
</svg>
