<svg width="341" height="406" viewBox="0 0 341 406" fill="none" xmlns="http://www.w3.org/2000/svg">
<path d="M145 272.29L341 76.2897C333 103.29 323 140.29 279 188.29C235 236.29 178 259.29 145 272.29Z" fill="#3C652F"/>
<path d="M341 76.2897L145 272.29C153 245.29 163 208.29 207 160.29C251 112.29 308 89.2897 341 76.2897Z" fill="#3C652F"/>
<path d="M145.5 271.79C171.667 232.623 245.4 140.29 339 78.2897" stroke="#2A501E" stroke-width="2" stroke-linecap="round"/>
<path d="M140 269L140 287.786C140 318.323 124.735 346.417 89.9315 346.417C46.4573 346.417 71.8287 346.417 61.4486 346.417C24.8131 346.417 1 358.021 1 406.88C1 467.954 1 602.927 1 737.29" stroke="#638A4E" stroke-width="2"/>
<path d="M208.699 28.0685C210.77 22.1701 219.599 24.5358 218.444 30.6797C217.982 33.1352 219.382 35.5599 221.74 36.3878C227.638 38.4593 225.272 47.2881 219.128 46.1329C216.673 45.6712 214.248 47.0712 213.42 49.4285C211.349 55.3269 202.52 52.9612 203.675 46.8173C204.137 44.3618 202.737 41.9371 200.38 41.1092C194.481 39.0377 196.847 30.2089 202.991 31.3641C205.446 31.8258 207.871 30.4258 208.699 28.0685Z" fill="#758CD0"/>
<path d="M206.096 38.1507C205.82 37.6724 205.984 37.0608 206.462 36.7846L211.659 33.7846C212.137 33.5085 212.748 33.6724 213.025 34.1507L216.025 39.3468C216.301 39.8251 216.137 40.4367 215.659 40.7128L210.462 43.7128C209.984 43.989 209.373 43.8251 209.096 43.3468L206.096 38.1507Z" fill="#5465AE" stroke="#6877BA" stroke-width="2"/>
<path d="M191.414 46.213C193.485 40.3146 202.314 42.6803 201.159 48.8243C200.697 51.2797 202.097 53.7044 204.455 54.5323C210.353 56.6039 207.987 65.4327 201.843 64.2775C199.388 63.8158 196.963 65.2157 196.135 67.573C194.064 73.4714 185.235 71.1058 186.39 64.9618C186.852 62.5064 185.452 60.0816 183.095 59.2537C177.196 57.1822 179.562 48.3534 185.706 49.5086C188.161 49.9703 190.586 48.5703 191.414 46.213Z" fill="#758CD0"/>
<path d="M188.811 56.2952C188.535 55.8169 188.699 55.2053 189.177 54.9292L194.373 51.9292C194.852 51.653 195.463 51.8169 195.739 52.2952L198.739 57.4913C199.016 57.9696 198.852 58.5812 198.373 58.8574L193.177 61.8574C192.699 62.1335 192.087 61.9696 191.811 61.4913L188.811 56.2952Z" fill="#5465AE" stroke="#6877BA" stroke-width="2"/>
<path d="M209.558 63.4982C211.63 57.5998 220.459 59.9654 219.303 66.1094C218.842 68.5648 220.242 70.9896 222.599 71.8174C228.497 73.889 226.132 82.7178 219.988 81.5626C217.532 81.1009 215.108 82.5008 214.28 84.8581C212.208 90.7566 203.379 88.3909 204.535 82.2469C204.996 79.7915 203.596 77.3668 201.239 76.5389C195.341 74.4673 197.706 65.6385 203.85 66.7937C206.306 67.2554 208.73 65.8555 209.558 63.4982Z" fill="#758CD0"/>
<path d="M206.956 73.5803C206.68 73.102 206.844 72.4904 207.322 72.2143L212.518 69.2143C212.996 68.9381 213.608 69.102 213.884 69.5803L216.884 74.7765C217.16 75.2548 216.996 75.8663 216.518 76.1425L211.322 79.1425C210.844 79.4186 210.232 79.2548 209.956 78.7765L206.956 73.5803Z" fill="#5465AE" stroke="#6877BA" stroke-width="2"/>
<path d="M192.273 81.6427C194.345 75.7443 203.174 78.11 202.018 84.2539C201.557 86.7093 202.957 89.1341 205.314 89.962C211.212 92.0335 208.847 100.862 202.703 99.7071C200.247 99.2454 197.823 100.645 196.995 103.003C194.923 108.901 186.094 106.535 187.25 100.391C187.711 97.936 186.311 95.5113 183.954 94.6834C178.056 92.6119 180.421 83.7831 186.565 84.9383C189.021 85.3999 191.445 84 192.273 81.6427Z" fill="#758CD0"/>
<path d="M189.671 91.7248C189.395 91.2466 189.558 90.635 190.037 90.3588L195.233 87.3588C195.711 87.0827 196.323 87.2466 196.599 87.7248L199.599 92.921C199.875 93.3993 199.711 94.0109 199.233 94.287L194.037 97.287C193.558 97.5632 192.947 97.3993 192.671 96.921L189.671 91.7248Z" fill="#5465AE" stroke="#6877BA" stroke-width="2"/>
<path d="M174.129 64.3576C176.2 58.4592 185.029 60.8248 183.874 66.9688C183.412 69.4242 184.812 71.849 187.169 72.6768C193.068 74.7484 190.702 83.5772 184.558 82.422C182.103 81.9603 179.678 83.3602 178.85 85.7175C176.779 91.616 167.95 89.2503 169.105 83.1063C169.567 80.6509 168.167 78.2262 165.809 77.3983C159.911 75.3267 162.277 66.4979 168.421 67.6531C170.876 68.1148 173.301 66.7149 174.129 64.3576Z" fill="#758CD0"/>
<path d="M171.526 74.4397C171.25 73.9614 171.414 73.3498 171.892 73.0737L177.088 70.0737C177.567 69.7976 178.178 69.9614 178.454 70.4397L181.454 75.6359C181.73 76.1142 181.567 76.7258 181.088 77.0019L175.892 80.0019C175.414 80.278 174.802 80.1142 174.526 79.6359L171.526 74.4397Z" fill="#5465AE" stroke="#6877BA" stroke-width="2"/>
<path d="M156.844 82.5021C158.915 76.6037 167.744 78.9694 166.589 85.1133C166.127 87.5687 167.527 89.9935 169.884 90.8214C175.783 92.8929 173.417 101.722 167.273 100.567C164.818 100.105 162.393 101.505 161.565 103.862C159.493 109.76 150.665 107.395 151.82 101.251C152.282 98.7954 150.882 96.3707 148.524 95.5428C142.626 93.4713 144.992 84.6425 151.136 85.7977C153.591 86.2593 156.016 84.8594 156.844 82.5021Z" fill="#758CD0"/>
<path d="M154.241 92.5843C153.965 92.106 154.129 91.4944 154.607 91.2182L159.803 88.2182C160.281 87.9421 160.893 88.106 161.169 88.5843L164.169 93.7804C164.445 94.2587 164.281 94.8703 163.803 95.1464L158.607 98.1464C158.129 98.4226 157.517 98.2587 157.241 97.7804L154.241 92.5843Z" fill="#5465AE" stroke="#6877BA" stroke-width="2"/>
<path d="M174.988 99.7873C177.06 93.8888 185.888 96.2545 184.733 102.398C184.272 104.854 185.671 107.279 188.029 108.107C193.927 110.178 191.562 119.007 185.418 117.852C182.962 117.39 180.537 118.79 179.71 121.147C177.638 127.046 168.809 124.68 169.964 118.536C170.426 116.081 169.026 113.656 166.669 112.828C160.77 110.756 163.136 101.928 169.28 103.083C171.735 103.545 174.16 102.145 174.988 99.7873Z" fill="#758CD0"/>
<path d="M172.386 109.869C172.109 109.391 172.273 108.78 172.752 108.503L177.948 105.503C178.426 105.227 179.038 105.391 179.314 105.869L182.314 111.066C182.59 111.544 182.426 112.155 181.948 112.432L176.752 115.432C176.273 115.708 175.662 115.544 175.386 115.066L172.386 109.869Z" fill="#5465AE" stroke="#6877BA" stroke-width="2"/>
<path d="M193.133 117.072C195.204 111.174 204.033 113.54 202.878 119.684C202.416 122.139 203.816 124.564 206.173 125.392C212.072 127.463 209.706 136.292 203.562 135.137C201.107 134.675 198.682 136.075 197.854 138.432C195.783 144.331 186.954 141.965 188.109 135.821C188.571 133.366 187.171 130.941 184.813 130.113C178.915 128.042 181.281 119.213 187.425 120.368C189.88 120.83 192.305 119.43 193.133 117.072Z" fill="#758CD0"/>
<path d="M190.53 127.155C190.254 126.676 190.418 126.065 190.896 125.789L196.092 122.789C196.571 122.512 197.182 122.676 197.458 123.155L200.458 128.351C200.734 128.829 200.571 129.441 200.092 129.717L194.896 132.717C194.418 132.993 193.806 132.829 193.53 132.351L190.53 127.155Z" fill="#5465AE" stroke="#6877BA" stroke-width="2"/>
<path d="M210.418 98.9278C212.489 93.0294 221.318 95.3951 220.163 101.539C219.701 103.994 221.101 106.419 223.458 107.247C229.357 109.319 226.991 118.147 220.847 116.992C218.392 116.531 215.967 117.93 215.139 120.288C213.068 126.186 204.239 123.821 205.394 117.677C205.856 115.221 204.456 112.796 202.098 111.969C196.2 109.897 198.566 101.068 204.71 102.223C207.165 102.685 209.59 101.285 210.418 98.9278Z" fill="#758CD0"/>
<path d="M207.815 109.01C207.539 108.532 207.703 107.92 208.181 107.644L213.377 104.644C213.856 104.368 214.467 104.532 214.743 105.01L217.743 110.206C218.02 110.684 217.856 111.296 217.377 111.572L212.181 114.572C211.703 114.848 211.091 114.684 210.815 114.206L207.815 109.01Z" fill="#5465AE" stroke="#6877BA" stroke-width="2"/>
<path d="M211.277 134.358C213.349 128.459 222.178 130.825 221.022 136.969C220.561 139.424 221.961 141.849 224.318 142.677C230.216 144.748 227.851 153.577 221.707 152.422C219.251 151.96 216.826 153.36 215.999 155.717C213.927 161.616 205.098 159.25 206.253 153.106C206.715 150.651 205.315 148.226 202.958 147.398C197.059 145.327 199.425 136.498 205.569 137.653C208.025 138.115 210.449 136.715 211.277 134.358Z" fill="#758CD0"/>
<path d="M208.675 144.44C208.398 143.961 208.562 143.35 209.041 143.074L214.237 140.074C214.715 139.797 215.327 139.961 215.603 140.44L218.603 145.636C218.879 146.114 218.715 146.726 218.237 147.002L213.041 150.002C212.562 150.278 211.951 150.114 211.675 149.636L208.675 144.44Z" fill="#5465AE" stroke="#6877BA" stroke-width="2"/>
<path d="M193.992 152.502C196.064 146.604 204.892 148.969 203.737 155.113C203.275 157.569 204.675 159.993 207.033 160.821C212.931 162.893 210.565 171.722 204.422 170.566C201.966 170.105 199.541 171.505 198.713 173.862C196.642 179.76 187.813 177.395 188.968 171.251C189.43 168.795 188.03 166.371 185.673 165.543C179.774 163.471 182.14 154.642 188.284 155.798C190.739 156.259 193.164 154.859 193.992 152.502Z" fill="#758CD0"/>
<path d="M191.389 162.584C191.113 162.106 191.277 161.494 191.755 161.218L196.952 158.218C197.43 157.942 198.042 158.106 198.318 158.584L201.318 163.78C201.594 164.259 201.43 164.87 200.952 165.146L195.755 168.146C195.277 168.423 194.666 168.259 194.389 167.78L191.389 162.584Z" fill="#5465AE" stroke="#6877BA" stroke-width="2"/>
<path d="M175.847 135.217C177.919 129.319 186.748 131.684 185.593 137.828C185.131 140.284 186.531 142.708 188.888 143.536C194.787 145.608 192.421 154.437 186.277 153.281C183.822 152.82 181.397 154.22 180.569 156.577C178.497 162.475 169.669 160.11 170.824 153.966C171.285 151.51 169.886 149.086 167.528 148.258C161.63 146.186 163.995 137.357 170.139 138.512C172.595 138.974 175.02 137.574 175.847 135.217Z" fill="#758CD0"/>
<path d="M173.245 145.299C172.969 144.821 173.133 144.209 173.611 143.933L178.807 140.933C179.285 140.657 179.897 140.821 180.173 141.299L183.173 146.495C183.449 146.974 183.285 147.585 182.807 147.861L177.611 150.861C177.133 151.137 176.521 150.974 176.245 150.495L173.245 145.299Z" fill="#5465AE" stroke="#6877BA" stroke-width="2"/>
<path d="M157.703 117.932C159.775 112.033 168.603 114.399 167.448 120.543C166.986 122.998 168.386 125.423 170.744 126.251C176.642 128.323 174.276 137.151 168.132 135.996C165.677 135.535 163.252 136.934 162.424 139.292C160.353 145.19 151.524 142.825 152.679 136.681C153.141 134.225 151.741 131.8 149.384 130.972C143.485 128.901 145.851 120.072 151.995 121.227C154.45 121.689 156.875 120.289 157.703 117.932Z" fill="#758CD0"/>
<path d="M155.1 128.014C154.824 127.536 154.988 126.924 155.466 126.648L160.663 123.648C161.141 123.372 161.752 123.536 162.029 124.014L165.029 129.21C165.305 129.688 165.141 130.3 164.663 130.576L159.466 133.576C158.988 133.852 158.377 133.688 158.1 133.21L155.1 128.014Z" fill="#5465AE" stroke="#6877BA" stroke-width="2"/>
<path d="M139.558 100.647C141.63 94.7483 150.459 97.1139 149.304 103.258C148.842 105.713 150.242 108.138 152.599 108.966C158.498 111.037 156.132 119.866 149.988 118.711C147.532 118.249 145.108 119.649 144.28 122.007C142.208 127.905 133.379 125.539 134.535 119.395C134.996 116.94 133.596 114.515 131.239 113.687C125.341 111.616 127.706 102.787 133.85 103.942C136.306 104.404 138.731 103.004 139.558 100.647Z" fill="#758CD0"/>
<path d="M136.956 110.729C136.68 110.251 136.844 109.639 137.322 109.363L142.518 106.363C142.996 106.087 143.608 106.251 143.884 106.729L146.884 111.925C147.16 112.403 146.996 113.015 146.518 113.291L141.322 116.291C140.844 116.567 140.232 116.403 139.956 115.925L136.956 110.729Z" fill="#5465AE" stroke="#6877BA" stroke-width="2"/>
<path d="M120.341 118.274C122.413 112.375 131.242 114.741 130.087 120.885C129.625 123.34 131.025 125.765 133.382 126.593C139.281 128.664 136.915 137.493 130.771 136.338C128.315 135.876 125.891 137.276 125.063 139.634C122.991 145.532 114.163 143.166 115.318 137.022C115.779 134.567 114.379 132.142 112.022 131.314C106.124 129.243 108.489 120.414 114.633 121.569C117.089 122.031 119.514 120.631 120.341 118.274Z" fill="#758CD0"/>
<path d="M117.739 128.356C117.463 127.877 117.627 127.266 118.105 126.99L123.301 123.99C123.779 123.714 124.391 123.877 124.667 124.356L127.667 129.552C127.943 130.03 127.779 130.642 127.301 130.918L122.105 133.918C121.627 134.194 121.015 134.03 120.739 133.552L117.739 128.356Z" fill="#5465AE" stroke="#6877BA" stroke-width="2"/>
<path d="M140.418 136.076C142.489 130.178 151.318 132.544 150.163 138.688C149.701 141.143 151.101 143.568 153.459 144.396C159.357 146.467 156.991 155.296 150.847 154.141C148.392 153.679 145.967 155.079 145.139 157.436C143.068 163.335 134.239 160.969 135.394 154.825C135.856 152.37 134.456 149.945 132.099 149.117C126.2 147.045 128.566 138.217 134.71 139.372C137.165 139.834 139.59 138.434 140.418 136.076Z" fill="#758CD0"/>
<path d="M137.815 146.158C137.539 145.68 137.703 145.069 138.181 144.792L143.377 141.792C143.856 141.516 144.467 141.68 144.743 142.158L147.743 147.355C148.02 147.833 147.856 148.445 147.377 148.721L142.181 151.721C141.703 151.997 141.091 151.833 140.815 151.355L137.815 146.158Z" fill="#5465AE" stroke="#6877BA" stroke-width="2"/>
<path d="M158.562 153.361C160.634 147.463 169.463 149.829 168.308 155.973C167.846 158.428 169.246 160.853 171.603 161.681C177.501 163.752 175.136 172.581 168.992 171.426C166.536 170.964 164.112 172.364 163.284 174.721C161.212 180.62 152.383 178.254 153.539 172.11C154 169.655 152.6 167.23 150.243 166.402C144.345 164.331 146.71 155.502 152.854 156.657C155.31 157.119 157.734 155.719 158.562 153.361Z" fill="#758CD0"/>
<path d="M155.96 163.444C155.684 162.965 155.848 162.354 156.326 162.078L161.522 159.078C162 158.801 162.612 158.965 162.888 159.444L165.888 164.64C166.164 165.118 166 165.73 165.522 166.006L160.326 169.006C159.848 169.282 159.236 169.118 158.96 168.64L155.96 163.444Z" fill="#5465AE" stroke="#6877BA" stroke-width="2"/>
<path d="M176.707 170.647C178.778 164.748 187.607 167.114 186.452 173.258C185.99 175.713 187.39 178.138 189.748 178.966C195.646 181.037 193.28 189.866 187.136 188.711C184.681 188.249 182.256 189.649 181.428 192.007C179.357 197.905 170.528 195.539 171.683 189.395C172.145 186.94 170.745 184.515 168.388 183.687C162.489 181.616 164.855 172.787 170.999 173.942C173.454 174.404 175.879 173.004 176.707 170.647Z" fill="#758CD0"/>
<path d="M174.104 180.729C173.828 180.25 173.992 179.639 174.47 179.363L179.667 176.363C180.145 176.087 180.756 176.25 181.033 176.729L184.033 181.925C184.309 182.403 184.145 183.015 183.667 183.291L178.47 186.291C177.992 186.567 177.38 186.403 177.104 185.925L174.104 180.729Z" fill="#5465AE" stroke="#6877BA" stroke-width="2"/>
<path d="M194.851 187.932C196.923 182.033 205.752 184.399 204.597 190.543C204.135 192.998 205.535 195.423 207.892 196.251C213.791 198.323 211.425 207.151 205.281 205.996C202.825 205.534 200.401 206.934 199.573 209.292C197.501 215.19 188.673 212.824 189.828 206.68C190.289 204.225 188.889 201.8 186.532 200.972C180.634 198.901 182.999 190.072 189.143 191.227C191.599 191.689 194.024 190.289 194.851 187.932Z" fill="#758CD0"/>
<path d="M192.249 198.014C191.973 197.536 192.137 196.924 192.615 196.648L197.811 193.648C198.289 193.372 198.901 193.536 199.177 194.014L202.177 199.21C202.453 199.688 202.289 200.3 201.811 200.576L196.615 203.576C196.137 203.852 195.525 203.688 195.249 203.21L192.249 198.014Z" fill="#5465AE" stroke="#6877BA" stroke-width="2"/>
<path d="M177.566 206.076C179.638 200.178 188.467 202.543 187.311 208.687C186.85 211.143 188.25 213.568 190.607 214.396C196.505 216.467 194.14 225.296 187.996 224.141C185.54 223.679 183.116 225.079 182.288 227.436C180.216 233.335 171.387 230.969 172.543 224.825C173.004 222.37 171.604 219.945 169.247 219.117C163.349 217.045 165.714 208.217 171.858 209.372C174.314 209.833 176.738 208.434 177.566 206.076Z" fill="#758CD0"/>
<path d="M174.964 216.158C174.688 215.68 174.851 215.068 175.33 214.792L180.526 211.792C181.004 211.516 181.616 211.68 181.892 212.158L184.892 217.355C185.168 217.833 185.004 218.444 184.526 218.721L179.33 221.721C178.851 221.997 178.24 221.833 177.964 221.355L174.964 216.158Z" fill="#5465AE" stroke="#6877BA" stroke-width="2"/>
<path d="M159.422 188.791C161.493 182.893 170.322 185.258 169.167 191.402C168.705 193.858 170.105 196.283 172.462 197.11C178.361 199.182 175.995 208.011 169.851 206.856C167.396 206.394 164.971 207.794 164.143 210.151C162.072 216.05 153.243 213.684 154.398 207.54C154.86 205.084 153.46 202.66 151.103 201.832C145.204 199.76 147.57 190.931 153.714 192.087C156.169 192.548 158.594 191.148 159.422 188.791Z" fill="#758CD0"/>
<path d="M156.819 198.873C156.543 198.395 156.707 197.783 157.185 197.507L162.381 194.507C162.86 194.231 163.471 194.395 163.747 194.873L166.747 200.069C167.024 200.548 166.86 201.159 166.381 201.435L161.185 204.435C160.707 204.712 160.095 204.548 159.819 204.069L156.819 198.873Z" fill="#5465AE" stroke="#6877BA" stroke-width="2"/>
<path d="M141.277 171.506C143.349 165.608 152.178 167.973 151.022 174.117C150.561 176.573 151.961 178.997 154.318 179.825C160.216 181.897 157.851 190.726 151.707 189.57C149.251 189.109 146.827 190.509 145.999 192.866C143.927 198.764 135.098 196.399 136.254 190.255C136.715 187.799 135.315 185.375 132.958 184.547C127.06 182.475 129.425 173.646 135.569 174.802C138.025 175.263 140.449 173.863 141.277 171.506Z" fill="#758CD0"/>
<path d="M138.675 181.588C138.399 181.11 138.562 180.498 139.041 180.222L144.237 177.222C144.715 176.946 145.327 177.11 145.603 177.588L148.603 182.784C148.879 183.263 148.715 183.874 148.237 184.15L143.041 187.15C142.562 187.426 141.951 187.263 141.675 186.784L138.675 181.588Z" fill="#5465AE" stroke="#6877BA" stroke-width="2"/>
<path d="M123.133 154.221C125.204 148.322 134.033 150.688 132.878 156.832C132.416 159.287 133.816 161.712 136.173 162.54C142.072 164.612 139.706 173.44 133.562 172.285C131.107 171.824 128.682 173.224 127.854 175.581C125.783 181.479 116.954 179.114 118.109 172.97C118.571 170.514 117.171 168.089 114.813 167.262C108.915 165.19 111.281 156.361 117.425 157.516C119.88 157.978 122.305 156.578 123.133 154.221Z" fill="#758CD0"/>
<path d="M120.53 164.303C120.254 163.825 120.418 163.213 120.896 162.937L126.092 159.937C126.571 159.661 127.182 159.825 127.458 160.303L130.458 165.499C130.734 165.977 130.571 166.589 130.092 166.865L124.896 169.865C124.418 170.141 123.806 169.977 123.53 169.499L120.53 164.303Z" fill="#5465AE" stroke="#6877BA" stroke-width="2"/>
<path d="M103.056 136.418C105.128 130.52 113.957 132.885 112.801 139.029C112.34 141.485 113.74 143.909 116.097 144.737C121.995 146.809 119.63 155.638 113.486 154.483C111.03 154.021 108.606 155.421 107.778 157.778C105.706 163.676 96.8774 161.311 98.0326 155.167C98.4943 152.711 97.0944 150.287 94.7371 149.459C88.8386 147.387 91.2043 138.558 97.3483 139.714C99.8037 140.175 102.228 138.775 103.056 136.418Z" fill="#758CD0"/>
<path d="M100.454 146.5C100.178 146.022 100.341 145.41 100.82 145.134L106.016 142.134C106.494 141.858 107.106 142.022 107.382 142.5L110.382 147.696C110.658 148.175 110.494 148.786 110.016 149.062L104.82 152.062C104.341 152.339 103.73 152.175 103.454 151.696L100.454 146.5Z" fill="#5465AE" stroke="#6877BA" stroke-width="2"/>
<path d="M105.14 171.141C107.212 165.242 116.041 167.608 114.886 173.752C114.424 176.207 115.824 178.632 118.181 179.46C124.08 181.531 121.714 190.36 115.57 189.205C113.115 188.743 110.69 190.143 109.862 192.501C107.79 198.399 98.9616 196.033 100.117 189.889C100.578 187.434 99.1785 185.009 96.8212 184.181C90.9228 182.11 93.2885 173.281 99.4324 174.436C101.888 174.898 104.313 173.498 105.14 171.141Z" fill="#758CD0"/>
<path d="M102.538 181.223C102.262 180.745 102.426 180.133 102.904 179.857L108.1 176.857C108.578 176.581 109.19 176.745 109.466 177.223L112.466 182.419C112.742 182.897 112.578 183.509 112.1 183.785L106.904 186.785C106.426 187.061 105.814 186.897 105.538 186.419L102.538 181.223Z" fill="#5465AE" stroke="#6877BA" stroke-width="2"/>
<path d="M123.026 189.392C125.098 183.493 133.927 185.859 132.771 192.003C132.31 194.458 133.71 196.883 136.067 197.711C141.965 199.783 139.6 208.611 133.456 207.456C131 206.994 128.575 208.394 127.748 210.752C125.676 216.65 116.847 214.284 118.002 208.14C118.464 205.685 117.064 203.26 114.707 202.432C108.808 200.361 111.174 191.532 117.318 192.687C119.774 193.149 122.198 191.749 123.026 189.392Z" fill="#758CD0"/>
<path d="M120.424 199.474C120.147 198.996 120.311 198.384 120.79 198.108L125.986 195.108C126.464 194.832 127.076 194.996 127.352 195.474L130.352 200.67C130.628 201.148 130.464 201.76 129.986 202.036L124.79 205.036C124.311 205.312 123.7 205.148 123.424 204.67L120.424 199.474Z" fill="#5465AE" stroke="#6877BA" stroke-width="2"/>
<path d="M142.395 205.97C144.467 200.071 153.296 202.437 152.141 208.581C151.679 211.036 153.079 213.461 155.436 214.289C161.335 216.361 158.969 225.189 152.825 224.034C150.37 223.572 147.945 224.972 147.117 227.33C145.045 233.228 136.217 230.862 137.372 224.718C137.833 222.263 136.434 219.838 134.076 219.01C128.178 216.939 130.543 208.11 136.687 209.265C139.143 209.727 141.568 208.327 142.395 205.97Z" fill="#758CD0"/>
<path d="M139.793 216.052C139.517 215.574 139.681 214.962 140.159 214.686L145.355 211.686C145.833 211.41 146.445 211.574 146.721 212.052L149.721 217.248C149.997 217.726 149.833 218.338 149.355 218.614L144.159 221.614C143.681 221.89 143.069 221.726 142.793 221.248L139.793 216.052Z" fill="#5465AE" stroke="#6877BA" stroke-width="2"/>
<path d="M160.54 223.255C162.612 217.356 171.44 219.722 170.285 225.866C169.823 228.321 171.223 230.746 173.581 231.574C179.479 233.646 177.113 242.474 170.969 241.319C168.514 240.858 166.089 242.258 165.261 244.615C163.19 250.513 154.361 248.148 155.516 242.004C155.978 239.548 154.578 237.123 152.221 236.296C146.322 234.224 148.688 225.395 154.832 226.55C157.287 227.012 159.712 225.612 160.54 223.255Z" fill="#758CD0"/>
<path d="M157.937 233.337C157.661 232.859 157.825 232.247 158.303 231.971L163.5 228.971C163.978 228.695 164.589 228.859 164.866 229.337L167.866 234.533C168.142 235.011 167.978 235.623 167.5 235.899L162.303 238.899C161.825 239.175 161.214 239.011 160.937 238.533L157.937 233.337Z" fill="#5465AE" stroke="#6877BA" stroke-width="2"/>
<path d="M180.875 240.092C182.947 234.193 191.776 236.559 190.62 242.703C190.159 245.158 191.559 247.583 193.916 248.411C199.814 250.483 197.449 259.311 191.305 258.156C188.849 257.694 186.425 259.094 185.597 261.452C183.525 267.35 174.696 264.984 175.851 258.84C176.313 256.385 174.913 253.96 172.556 253.132C166.658 251.061 169.023 242.232 175.167 243.387C177.623 243.849 180.047 242.449 180.875 240.092Z" fill="#758CD0"/>
<path d="M178.273 250.174C177.996 249.696 178.16 249.084 178.639 248.808L183.835 245.808C184.313 245.532 184.925 245.696 185.201 246.174L188.201 251.37C188.477 251.848 188.313 252.46 187.835 252.736L182.639 255.736C182.16 256.012 181.549 255.848 181.273 255.37L178.273 250.174Z" fill="#5465AE" stroke="#6877BA" stroke-width="2"/>
<path d="M197.902 222.913C199.973 217.015 208.802 219.38 207.647 225.524C207.185 227.98 208.585 230.404 210.942 231.232C216.841 233.304 214.475 242.133 208.331 240.977C205.876 240.516 203.451 241.916 202.623 244.273C200.551 250.171 191.723 247.806 192.878 241.662C193.339 239.206 191.94 236.782 189.582 235.954C183.684 233.882 186.05 225.053 192.193 226.209C194.649 226.67 197.074 225.27 197.902 222.913Z" fill="#758CD0"/>
<path d="M195.299 232.995C195.023 232.517 195.187 231.905 195.665 231.629L200.861 228.629C201.339 228.353 201.951 228.517 202.227 228.995L205.227 234.191C205.503 234.67 205.339 235.281 204.861 235.557L199.665 238.557C199.187 238.834 198.575 238.67 198.299 238.191L195.299 232.995Z" fill="#5465AE" stroke="#6877BA" stroke-width="2"/>
<path d="M215.187 204.769C217.258 198.87 226.087 201.236 224.932 207.38C224.47 209.835 225.87 212.26 228.227 213.088C234.126 215.159 231.76 223.988 225.616 222.833C223.161 222.371 220.736 223.771 219.908 226.129C217.837 232.027 209.008 229.661 210.163 223.517C210.625 221.062 209.225 218.637 206.867 217.809C200.969 215.738 203.335 206.909 209.479 208.064C211.934 208.526 214.359 207.126 215.187 204.769Z" fill="#758CD0"/>
<path d="M212.584 214.851C212.308 214.372 212.472 213.761 212.95 213.485L218.146 210.485C218.625 210.209 219.236 210.372 219.512 210.851L222.512 216.047C222.788 216.525 222.625 217.137 222.146 217.413L216.95 220.413C216.472 220.689 215.86 220.525 215.584 220.047L212.584 214.851Z" fill="#5465AE" stroke="#6877BA" stroke-width="2"/>
<path d="M212.844 171.012C214.915 165.114 223.744 167.479 222.589 173.623C222.127 176.079 223.527 178.503 225.884 179.331C231.783 181.403 229.417 190.232 223.273 189.076C220.818 188.615 218.393 190.015 217.565 192.372C215.494 198.27 206.665 195.905 207.82 189.761C208.282 187.305 206.882 184.881 204.524 184.053C198.626 181.981 200.992 173.152 207.136 174.307C209.591 174.769 212.016 173.369 212.844 171.012Z" fill="#758CD0"/>
<path d="M210.241 181.094C209.965 180.616 210.129 180.004 210.607 179.728L215.803 176.728C216.282 176.452 216.893 176.616 217.169 177.094L220.169 182.29C220.445 182.769 220.282 183.38 219.803 183.656L214.607 186.656C214.129 186.932 213.517 186.769 213.241 186.29L210.241 181.094Z" fill="#5465AE" stroke="#6877BA" stroke-width="2"/>
</svg>
