<svg width="500" height="500" viewBox="0 0 308 340" fill="none" xmlns="http://www.w3.org/2000/svg">
<ellipse rx="35.5093" ry="35.5195" transform="matrix(0.707111 -0.707103 -0.70711 -0.707103 132.776 191.775)" fill="#3C652F"/>
<path d="M96.1091 155.109L97.4914 196.84L137.725 156.607L96.1091 155.109Z" fill="#3C652F"/>
<path d="M97.2417 156.231C116.429 165.824 154.803 191.759 154.803 218.753" stroke="#638A4E" stroke-width="2"/>
<ellipse rx="35.5093" ry="35.5195" transform="matrix(-0.707111 -0.707103 0.70711 -0.707103 245.225 207.775)" fill="#3C652F"/>
<path d="M281.892 171.109L280.51 212.84L240.276 172.607L281.892 171.109Z" fill="#3C652F"/>
<path d="M280.76 172.231C261.573 181.824 223.198 207.759 223.198 234.753" stroke="#638A4E" stroke-width="2"/>
<path d="M223.5 234.5L186.5 271.5" stroke="#638A4E" stroke-width="2" stroke-linecap="round"/>
<path d="M155 218.5L186.5 249.5" stroke="#638A4E" stroke-width="2" stroke-linecap="round"/>
<path d="M186.5 115C186.5 115 186.5 206.5 186.5 283.5C186.5 318.235 166 339 128 339C68.2498 339 -25 339 -25 339" stroke="#638A4E" stroke-width="2"/>
<path d="M112.634 184.366C130.991 173.095 171.917 142.087 188.767 108.233L112.634 184.366Z" fill="white"/>
<path d="M112.635 184.367C123.906 166.01 154.914 125.084 188.768 108.234L112.635 184.367Z" fill="white"/>
<path d="M189.236 107.765C207.593 96.4933 248.519 65.4862 265.369 31.6322L189.236 107.765Z" fill="white"/>
<path d="M189.236 107.766C200.508 89.4086 231.515 48.4823 265.369 31.6326L189.236 107.766Z" fill="white"/>
<path d="M89.2218 149.329C110.495 145.94 160.172 132.955 188.694 108.126L89.2218 149.329Z" fill="white"/>
<path d="M89.222 149.329C106.661 136.683 150.969 110.738 188.694 108.126L89.222 149.329Z" fill="white"/>
<path d="M189.306 107.873C210.58 104.484 260.256 91.4987 288.779 66.6698L189.306 107.873Z" fill="white"/>
<path d="M189.307 107.873C206.745 95.2271 251.054 69.282 288.779 66.6703L189.307 107.873Z" fill="white"/>
<path d="M81.0009 107.999C101.952 113.009 152.816 120.023 188.669 107.999L81.0009 107.999Z" fill="white"/>
<path d="M81.0009 108C101.952 102.99 152.816 95.9758 188.669 108L81.0009 108Z" fill="white"/>
<path d="M189.332 107.999C210.282 113.009 261.147 120.023 297 107.999L189.332 107.999Z" fill="white"/>
<path d="M189.332 108C210.282 102.99 261.147 95.9761 297 108L189.332 108Z" fill="white"/>
<path d="M89.2213 66.6695C106.66 79.3156 150.969 105.261 188.694 107.872L89.2213 66.6695Z" fill="white"/>
<path d="M89.2211 66.6701C110.494 70.059 160.171 83.044 188.694 107.873L89.2211 66.6701Z" fill="white"/>
<path d="M189.306 108.126C206.744 120.772 251.053 146.717 288.778 149.329L189.306 108.126Z" fill="white"/>
<path d="M189.306 108.127C210.579 111.516 260.255 124.501 288.778 149.329L189.306 108.127Z" fill="white"/>
<path d="M112.633 31.6322C123.905 49.9891 154.912 90.9153 188.766 107.765L112.633 31.6322Z" fill="white"/>
<path d="M112.633 31.6326C130.99 42.9044 171.916 73.9114 188.766 107.765L112.633 31.6326Z" fill="white"/>
<path d="M189.234 108.234C200.506 126.591 231.513 167.517 265.367 184.367L189.234 108.234Z" fill="white"/>
<path d="M189.234 108.234C207.591 119.506 248.517 150.513 265.367 184.367L189.234 108.234Z" fill="white"/>
<path d="M147.67 8.22121C151.059 29.4943 164.044 79.1711 188.873 107.694L147.67 8.22121Z" fill="white"/>
<path d="M147.669 8.22142C160.315 25.6601 186.26 69.9687 188.872 107.694L147.669 8.22142Z" fill="white"/>
<path d="M189.126 108.306C192.515 129.579 205.5 179.256 230.329 207.778L189.126 108.306Z" fill="white"/>
<path d="M189.126 108.306C201.772 125.745 227.717 170.053 230.328 207.778L189.126 108.306Z" fill="white"/>
<path d="M189 0.000487399C183.99 20.9511 176.976 71.8157 189 107.669L189 0.000487399Z" fill="white"/>
<path d="M188.999 0.000489164C194.009 20.9511 201.023 71.8157 188.999 107.669L188.999 0.000489164Z" fill="white"/>
<path d="M188.999 108.331C183.989 129.282 176.975 180.146 188.999 215.999L188.999 108.331Z" fill="white"/>
<path d="M188.999 108.331C194.009 129.282 201.023 180.146 188.999 215.999L188.999 108.331Z" fill="white"/>
<path d="M230.328 8.22166C217.682 25.6603 191.737 69.9689 189.125 107.694L230.328 8.22166Z" fill="white"/>
<path d="M230.328 8.22145C226.939 29.4946 213.954 79.1714 189.125 107.694L230.328 8.22145Z" fill="white"/>
<path d="M188.872 108.306C176.225 125.745 150.28 170.053 147.669 207.779L188.872 108.306Z" fill="white"/>
<path d="M188.871 108.306C185.482 129.579 172.497 179.256 147.668 207.778L188.871 108.306Z" fill="white"/>
<path d="M265.365 31.6332C247.009 42.905 206.082 73.9121 189.233 107.766L265.365 31.6332Z" fill="white"/>
<path d="M265.365 31.6328C254.093 49.9897 223.086 90.916 189.232 107.766L265.365 31.6328Z" fill="white"/>
<path d="M188.764 108.234C170.407 119.506 129.481 150.513 112.631 184.367L188.764 108.234Z" fill="white"/>
<path d="M188.764 108.234C177.492 126.591 146.485 167.517 112.631 184.367L188.764 108.234Z" fill="white"/>
<path d="M288.776 66.6708C267.503 70.0597 217.826 83.0447 189.304 107.874L288.776 66.6708Z" fill="white"/>
<path d="M288.776 66.6703C271.337 79.3163 227.029 105.261 189.303 107.873L288.776 66.6703Z" fill="white"/>
<path d="M188.691 108.127C167.418 111.516 117.741 124.501 89.219 149.33L188.691 108.127Z" fill="white"/>
<path d="M188.691 108.126C171.253 120.772 126.944 146.717 89.2188 149.329L188.691 108.126Z" fill="white"/>
<path d="M296.999 108C276.048 102.99 225.184 95.9765 189.331 108L296.999 108Z" fill="white"/>
<path d="M296.999 108C276.048 113.01 225.184 120.024 189.331 108L296.999 108Z" fill="white"/>
<path d="M188.668 108C167.718 102.99 116.853 95.9763 81.0001 108L188.668 108Z" fill="white"/>
<path d="M188.668 108C167.718 113.009 116.853 120.023 81.0001 108L188.668 108Z" fill="white"/>
<path d="M288.777 149.33C271.338 136.684 227.029 110.739 189.304 108.127L288.777 149.33Z" fill="white"/>
<path d="M288.777 149.329C267.504 145.94 217.827 132.955 189.304 108.126L288.777 149.329Z" fill="white"/>
<path d="M188.692 107.873C171.253 95.2271 126.945 69.2821 89.2196 66.6703L188.692 107.873Z" fill="white"/>
<path d="M188.692 107.873C167.419 104.484 117.742 91.4987 89.2198 66.6698L188.692 107.873Z" fill="white"/>
<path d="M265.365 184.367C254.093 166.01 223.086 125.084 189.232 108.234L265.365 184.367Z" fill="white"/>
<path d="M265.365 184.367C247.008 173.095 206.082 142.088 189.232 108.234L265.365 184.367Z" fill="white"/>
<path d="M188.764 107.765C177.492 89.4085 146.485 48.4823 112.631 31.6326L188.764 107.765Z" fill="white"/>
<path d="M188.764 107.765C170.407 96.4933 129.481 65.4862 112.631 31.6322L188.764 107.765Z" fill="white"/>
<path d="M230.326 207.778C226.937 186.505 213.952 136.828 189.123 108.306L230.326 207.778Z" fill="white"/>
<path d="M230.326 207.778C217.68 190.339 191.735 146.031 189.124 108.306L230.326 207.778Z" fill="white"/>
<path d="M188.87 107.694C185.481 86.4205 172.496 36.7437 147.667 8.22125L188.87 107.694Z" fill="white"/>
<path d="M188.87 107.693C176.224 90.2548 150.279 45.9462 147.667 8.22104L188.87 107.693Z" fill="white"/>
<path d="M188.996 215.999C194.006 195.048 201.02 144.184 188.996 108.331L188.996 215.999Z" fill="white"/>
<path d="M188.997 215.999C183.987 195.048 176.973 144.184 188.997 108.331L188.997 215.999Z" fill="white"/>
<path d="M188.997 107.668C194.006 86.7175 201.02 35.853 188.996 5.17026e-07L188.997 107.668Z" fill="white"/>
<path d="M188.997 107.668C183.987 86.7175 176.973 35.853 188.997 -5.17026e-07L188.997 107.668Z" fill="white"/>
<path d="M147.672 207.778C160.318 190.339 186.263 146.031 188.874 108.305L147.672 207.778Z" fill="white"/>
<path d="M147.672 207.778C151.061 186.505 164.046 136.828 188.875 108.306L147.672 207.778Z" fill="white"/>
<path d="M189.128 107.693C201.774 90.2547 227.719 45.9461 230.331 8.22096L189.128 107.693Z" fill="white"/>
<path d="M189.129 107.694C192.518 86.4205 205.503 36.7437 230.332 8.22117L189.129 107.694Z" fill="white"/>
<path d="M187.23 90.3473C187.41 88.1746 190.59 88.1746 190.77 90.3473C190.918 92.1263 193.303 92.6007 194.12 91.0136C195.118 89.0752 198.056 90.2922 197.391 92.3685C196.846 94.0685 198.868 95.4195 200.231 94.2659C201.894 92.8569 204.143 95.1057 202.734 96.7694C201.581 98.1317 202.932 100.154 204.632 99.6091C206.708 98.9441 207.925 101.882 205.986 102.88C204.399 103.697 204.874 106.082 206.653 106.23C208.825 106.41 208.825 109.59 206.653 109.77C204.874 109.918 204.399 112.303 205.986 113.12C207.925 114.118 206.708 117.056 204.632 116.391C202.932 115.846 201.581 117.868 202.734 119.231C204.143 120.894 201.894 123.143 200.231 121.734C198.868 120.581 196.846 121.932 197.391 123.632C198.056 125.708 195.118 126.925 194.12 124.986C193.303 123.399 190.918 123.874 190.77 125.653C190.59 127.825 187.41 127.825 187.23 125.653C187.082 123.874 184.697 123.399 183.88 124.986C182.882 126.925 179.944 125.708 180.609 123.632C181.154 121.932 179.132 120.581 177.769 121.734C176.106 123.143 173.857 120.894 175.266 119.231C176.419 117.868 175.068 115.846 173.368 116.391C171.292 117.056 170.075 114.118 172.014 113.12C173.601 112.303 173.126 109.918 171.347 109.77C169.175 109.59 169.175 106.41 171.347 106.23C173.126 106.082 173.601 103.697 172.014 102.88C170.075 101.882 171.292 98.9441 173.368 99.6091C175.068 100.154 176.419 98.1317 175.266 96.7694C173.857 95.1057 176.106 92.8569 177.769 94.2659C179.132 95.4195 181.154 94.0685 180.609 92.3685C179.944 90.2922 182.882 89.0752 183.88 91.0136C184.697 92.6007 187.082 92.1263 187.23 90.3473Z" fill="#F4B542" stroke="#638A4E" stroke-width="2"/>
</svg>
