<svg width="213" height="487" viewBox="0 0 213 487" fill="none" xmlns="http://www.w3.org/2000/svg">
<ellipse rx="35.5093" ry="35.5195" transform="matrix(-0.707111 -0.707103 0.70711 -0.707103 130.225 115.775)" fill="#74AA63"/>
<path d="M166.892 79.1088L165.51 120.84L125.276 80.6066L166.892 79.1088Z" fill="#74AA63"/>
<path d="M165.76 80.2307C146.573 89.8241 108.199 115.759 108.199 142.753" stroke="#638A4E" stroke-width="2"/>
<path d="M96 106V202.497C96 233.034 111.265 261.128 146.069 261.128C189.543 261.128 170.5 261.128 175 261.128C205 261.128 211.449 277 211.449 308C211.449 369.074 211.449 517.638 211.449 652" stroke="#638A4E" stroke-width="2"/>
<ellipse rx="35.5093" ry="35.5195" transform="matrix(0.707111 -0.707103 -0.70711 -0.707103 61.7758 177.775)" fill="#74AA63"/>
<path d="M25.1086 141.109L26.4909 182.84L66.7245 142.607L25.1086 141.109Z" fill="#74AA63"/>
<path d="M26.2413 142.231C45.4283 151.824 83.8025 177.759 83.8025 204.753" stroke="#638A4E" stroke-width="2"/>
<circle cx="97" cy="65" r="64" fill="#BD2A31"/>
<path fill-rule="evenodd" clip-rule="evenodd" d="M64.3516 65.1758C82.0248 65.1758 96.3516 50.8489 96.3516 33.1758C96.3516 50.8489 110.679 65.1758 128.352 65.1758C110.679 65.1758 96.3516 79.5027 96.3516 97.1758C96.3516 79.5027 82.0248 65.1758 64.3516 65.1758Z" fill="#93141A"/>
<path d="M96.9837 65.7033C96.2334 47.7302 96.5335 9.62711 103.736 1" stroke="#93141A" stroke-width="2" stroke-linecap="round"/>
<path d="M96.7033 66.0397C114.286 65.1394 151.56 65.4995 160 74.1429" stroke="#93141A" stroke-width="2" stroke-linecap="round"/>
<path d="M96.367 65.7033C97.2673 83.2857 96.9072 120.56 88.2639 129" stroke="#93141A" stroke-width="2" stroke-linecap="round"/>
<path d="M96.7033 65.3669C78.7302 66.2672 40.6271 65.9071 32 57.2638" stroke="#93141A" stroke-width="2" stroke-linecap="round"/>
</svg>
