<svg width="91" height="94" viewBox="0 0 91 94" fill="none" xmlns="http://www.w3.org/2000/svg">
<path d="M41.1026 11.4643C41.9988 4.55521 52.0012 4.55521 52.8974 11.4643V11.4643C53.5423 16.4361 59.6722 18.4278 63.1163 14.7846V14.7846C67.9024 9.72182 75.9945 15.6011 72.6585 21.7174V21.7174C70.2579 26.1188 74.0463 31.3331 78.9741 30.4101V30.4101C85.8219 29.1274 88.9129 38.6403 82.6189 41.6276V41.6276C78.0897 43.7773 78.0897 50.2227 82.6189 52.3724V52.3724C88.9129 55.3598 85.8219 64.8726 78.9741 63.5899V63.5899C74.0463 62.6669 70.2579 67.8812 72.6585 72.2826V72.2826C75.9945 78.3989 67.9024 84.2782 63.1163 79.2154V79.2154C59.6722 75.5722 53.5423 77.5639 52.8974 82.5357V82.5357C52.0012 89.4448 41.9988 89.4448 41.1026 82.5357V82.5357C40.4577 77.5639 34.3278 75.5722 30.8837 79.2154V79.2154C26.0976 84.2782 18.0055 78.3989 21.3415 72.2826V72.2826C23.7421 67.8812 19.9537 62.6669 15.0259 63.5899V63.5899C8.17806 64.8726 5.08715 55.3598 11.3812 52.3724V52.3724C15.9103 50.2227 15.9103 43.7773 11.3812 41.6276V41.6276C5.08715 38.6402 8.17806 29.1274 15.0259 30.4101V30.4101C19.9537 31.3331 23.7421 26.1188 21.3415 21.7174V21.7174C18.0055 15.6011 26.0976 9.72182 30.8837 14.7846V14.7846C34.3278 18.4278 40.4577 16.4361 41.1026 11.4643V11.4643Z" fill="#1D1B18" fill-opacity="0.8"/>
<path d="M73.891 31.6166L20.2883 62.5641" stroke="#EC6973" stroke-width="2" stroke-linecap="round"/>
<path d="M78.0379 47.0903L16.1428 47.0903" stroke="#EC6973" stroke-width="2" stroke-linecap="round"/>
<path d="M73.891 62.5641L20.2883 31.6166" stroke="#EC6973" stroke-width="2" stroke-linecap="round"/>
<path d="M62.5641 73.8917L31.6166 20.289" stroke="#EC6973" stroke-width="2" stroke-linecap="round"/>
<path d="M47.0904 78.0379L47.0904 16.1428" stroke="#EC6973" stroke-width="2" stroke-linecap="round"/>
<path d="M31.6166 73.8917L62.5641 20.289" stroke="#EC6973" stroke-width="2" stroke-linecap="round"/>
<path d="M20.2898 62.5641L73.8925 31.6166" stroke="#EC6973" stroke-width="2" stroke-linecap="round"/>
<path d="M16.1428 47.0903H78.0379" stroke="#EC6973" stroke-width="2" stroke-linecap="round"/>
<path d="M20.2882 31.6166L73.8909 62.5641" stroke="#EC6973" stroke-width="2" stroke-linecap="round"/>
<path d="M31.6158 20.289L62.5634 73.8917" stroke="#EC6973" stroke-width="2" stroke-linecap="round"/>
<path d="M40.9554 38.2949C41.4297 32.0613 50.57 32.0613 51.0443 38.2949V38.2949C51.2339 40.7862 53.2137 42.766 55.7049 42.9555V42.9555C61.9385 43.4299 61.9385 52.5701 55.7049 53.0444V53.0444C53.2137 53.234 51.2339 55.2138 51.0443 57.7051V57.7051C50.57 63.9386 41.4297 63.9386 40.9554 57.705V57.705C40.7658 55.2138 38.786 53.234 36.2948 53.0444V53.0444C30.0612 52.5701 30.0612 43.4299 36.2948 42.9555V42.9555C38.786 42.766 40.7658 40.7862 40.9554 38.2949V38.2949Z" fill="#EC6973"/>
<path d="M48.8292 50.8284C47.2671 52.3905 44.7344 52.3905 43.1723 50.8284C41.6102 49.2663 41.6102 46.7337 43.1723 45.1716C44.7344 43.6095 47.2671 43.6095 48.8292 45.1716C50.3913 46.7337 50.3913 49.2663 48.8292 50.8284Z" fill="#F4B542" stroke="#EC6973" stroke-width="2"/>
</svg>
