<svg width="341" height="94" viewBox="0 0 341 94" fill="none" xmlns="http://www.w3.org/2000/svg">
<path d="M41.1026 11.4643C41.9988 4.55521 52.0012 4.55521 52.8974 11.4643V11.4643C53.5423 16.4361 59.6722 18.4278 63.1163 14.7846V14.7846C67.9024 9.72182 75.9945 15.6011 72.6585 21.7174V21.7174C70.2579 26.1188 74.0463 31.3331 78.9741 30.4101V30.4101C85.8219 29.1274 88.9129 38.6403 82.6189 41.6276V41.6276C78.0897 43.7773 78.0897 50.2227 82.6189 52.3724V52.3724C88.9129 55.3598 85.8219 64.8726 78.9741 63.5899V63.5899C74.0463 62.6669 70.2579 67.8812 72.6585 72.2826V72.2826C75.9945 78.3989 67.9024 84.2782 63.1163 79.2154V79.2154C59.6722 75.5722 53.5423 77.5639 52.8974 82.5357V82.5357C52.0012 89.4448 41.9988 89.4448 41.1026 82.5357V82.5357C40.4577 77.5639 34.3278 75.5722 30.8837 79.2154V79.2154C26.0976 84.2782 18.0055 78.3989 21.3415 72.2826V72.2826C23.7421 67.8812 19.9537 62.6669 15.0259 63.5899V63.5899C8.17806 64.8726 5.08715 55.3598 11.3812 52.3724V52.3724C15.9103 50.2227 15.9103 43.7773 11.3812 41.6276V41.6276C5.08715 38.6402 8.17806 29.1274 15.0259 30.4101V30.4101C19.9537 31.3331 23.7421 26.1188 21.3415 21.7174V21.7174C18.0055 15.6011 26.0976 9.72182 30.8837 14.7846V14.7846C34.3278 18.4278 40.4577 16.4361 41.1026 11.4643V11.4643Z" fill="#1D1B18" fill-opacity="0.8"/>
<path d="M73.891 31.6166L20.2883 62.5641" stroke="#EC6973" stroke-width="2" stroke-linecap="round"/>
<path d="M78.038 47.0903L16.1429 47.0903" stroke="#EC6973" stroke-width="2" stroke-linecap="round"/>
<path d="M73.891 62.5641L20.2883 31.6166" stroke="#EC6973" stroke-width="2" stroke-linecap="round"/>
<path d="M62.5641 73.8917L31.6165 20.289" stroke="#EC6973" stroke-width="2" stroke-linecap="round"/>
<path d="M47.0903 78.0379L47.0903 16.1428" stroke="#EC6973" stroke-width="2" stroke-linecap="round"/>
<path d="M31.6166 73.8917L62.5641 20.289" stroke="#EC6973" stroke-width="2" stroke-linecap="round"/>
<path d="M20.2898 62.5641L73.8925 31.6166" stroke="#EC6973" stroke-width="2" stroke-linecap="round"/>
<path d="M16.1428 47.0903H78.0379" stroke="#EC6973" stroke-width="2" stroke-linecap="round"/>
<path d="M20.2882 31.6166L73.8909 62.5641" stroke="#EC6973" stroke-width="2" stroke-linecap="round"/>
<path d="M31.6158 20.289L62.5634 73.8917" stroke="#EC6973" stroke-width="2" stroke-linecap="round"/>
<path d="M40.9554 38.2949C41.4297 32.0613 50.57 32.0613 51.0443 38.2949V38.2949C51.2339 40.7862 53.2137 42.766 55.7049 42.9555V42.9555C61.9385 43.4299 61.9385 52.5701 55.7049 53.0444V53.0444C53.2137 53.234 51.2339 55.2138 51.0443 57.7051V57.7051C50.57 63.9386 41.4297 63.9386 40.9554 57.705V57.705C40.7658 55.2138 38.786 53.234 36.2948 53.0444V53.0444C30.0612 52.5701 30.0612 43.4299 36.2948 42.9555V42.9555C38.786 42.766 40.7658 40.7862 40.9554 38.2949V38.2949Z" fill="#EC6973"/>
<path d="M48.8292 50.8284C47.2671 52.3905 44.7344 52.3905 43.1723 50.8284C41.6102 49.2663 41.6102 46.7337 43.1723 45.1716C44.7344 43.6095 47.2671 43.6095 48.8292 45.1716C50.3913 46.7337 50.3913 49.2663 48.8292 50.8284Z" fill="#F4B542" stroke="#EC6973" stroke-width="2"/>
<path d="M112.16 54.288C112.16 54.704 112.096 55.28 111.968 56.016C111.84 56.72 111.68 57.424 111.488 58.128C111.296 58.832 111.072 59.44 110.816 59.952C110.56 60.464 110.32 60.72 110.096 60.72C109.744 60.72 109.232 60.416 108.56 59.808C107.888 59.168 107.168 58.416 106.4 57.552C105.632 56.688 104.88 55.792 104.144 54.864C103.44 53.936 102.88 53.152 102.464 52.512C101.92 51.68 101.424 50.832 100.976 49.968C100.56 49.104 100.192 48.272 99.872 47.472C99.584 46.672 99.36 45.936 99.2 45.264C99.04 44.56 98.96 43.968 98.96 43.488C98.96 43.072 99.072 42.72 99.296 42.432C99.552 42.144 99.776 42 99.968 42C100.256 42 100.464 42.112 100.592 42.336C100.72 42.528 100.832 42.816 100.928 43.2C101.024 43.552 101.136 43.984 101.264 44.496C101.392 45.008 101.6 45.584 101.888 46.224C102.208 46.992 102.656 47.888 103.232 48.912C103.84 49.904 104.496 50.912 105.2 51.936C105.904 52.96 106.608 53.92 107.312 54.816C108.048 55.712 108.72 56.4 109.328 56.88C109.52 56.336 109.664 55.616 109.76 54.72C109.856 53.824 109.904 52.928 109.904 52.032C109.904 51.2 109.856 50.24 109.76 49.152C109.664 48.032 109.52 46.896 109.328 45.744C109.168 44.56 108.976 43.408 108.752 42.288C108.528 41.136 108.304 40.096 108.08 39.168L106.592 33.648C106.592 33.328 106.752 33.072 107.072 32.88C107.392 32.656 107.696 32.544 107.984 32.544C108.4 32.544 108.688 32.64 108.848 32.832C109.008 32.992 109.104 33.248 109.136 33.6C109.2 33.952 109.232 34.4 109.232 34.944C109.264 35.456 109.36 36.048 109.52 36.72C109.84 38.224 110.144 39.84 110.432 41.568C110.752 43.264 111.04 44.928 111.296 46.56C111.552 48.16 111.76 49.648 111.92 51.024C112.08 52.4 112.16 53.488 112.16 54.288ZM118.783 37.92C118.783 37.984 118.671 38.112 118.447 38.304C118.223 38.496 117.951 38.704 117.631 38.928C117.343 39.12 117.039 39.296 116.719 39.456C116.399 39.616 116.143 39.696 115.951 39.696C115.823 39.696 115.647 39.696 115.423 39.696C115.231 39.664 115.023 39.6 114.799 39.504C114.607 39.408 114.431 39.28 114.271 39.12C114.111 38.928 114.031 38.688 114.031 38.4C114.031 37.952 114.191 37.536 114.511 37.152C114.831 36.736 115.247 36.528 115.759 36.528C115.855 36.528 116.063 36.576 116.383 36.672C116.735 36.736 117.087 36.832 117.439 36.96C117.791 37.088 118.095 37.232 118.351 37.392C118.639 37.552 118.783 37.728 118.783 37.92ZM120.367 55.872C120.367 56.096 120.191 56.288 119.839 56.448C119.519 56.608 119.279 56.688 119.119 56.688C118.799 56.688 118.511 56.48 118.255 56.064C117.999 55.648 117.775 55.168 117.583 54.624C117.391 54.08 117.231 53.568 117.103 53.088C116.975 52.576 116.879 52.224 116.815 52.032C116.719 51.712 116.591 51.328 116.431 50.88C116.271 50.432 116.111 50 115.951 49.584C115.823 49.168 115.711 48.8 115.615 48.48C115.519 48.16 115.471 47.984 115.471 47.952C115.471 47.504 115.551 47.088 115.711 46.704C115.903 46.32 116.127 46.128 116.383 46.128C116.671 46.128 116.975 46.352 117.295 46.8C117.615 47.248 117.919 47.824 118.207 48.528C118.527 49.2 118.815 49.952 119.071 50.784C119.327 51.584 119.551 52.352 119.743 53.088C119.935 53.792 120.079 54.416 120.175 54.96C120.303 55.472 120.367 55.776 120.367 55.872ZM134.732 45.36C134.732 45.584 134.636 45.776 134.444 45.936C134.252 46.064 134.028 46.176 133.772 46.272C133.516 46.368 133.26 46.448 133.004 46.512C132.748 46.544 132.54 46.56 132.38 46.56C131.9 46.56 131.58 46.528 131.42 46.464C131.26 46.4 131.132 46.368 131.036 46.368C130.236 46.368 129.596 46.432 129.116 46.56C128.636 46.688 128.252 46.896 127.964 47.184C127.708 47.472 127.532 47.84 127.436 48.288C127.372 48.704 127.34 49.216 127.34 49.824C127.34 50.848 127.372 51.664 127.436 52.272C127.532 52.88 127.612 53.376 127.676 53.76C127.772 54.144 127.852 54.448 127.916 54.672C128.012 54.864 128.06 55.056 128.06 55.248C128.06 55.504 127.916 55.776 127.628 56.064C127.372 56.352 127.132 56.496 126.908 56.496C126.524 56.496 126.172 56.16 125.852 55.488C125.564 54.784 125.308 53.968 125.084 53.04C124.892 52.08 124.732 51.136 124.604 50.208C124.476 49.28 124.412 48.576 124.412 48.096C124.412 47.552 124.46 47.04 124.556 46.56C124.652 46.048 124.78 45.616 124.94 45.264C125.1 44.88 125.276 44.576 125.468 44.352C125.66 44.128 125.852 44.016 126.044 44.016C126.204 44.016 126.332 44.08 126.428 44.208C126.524 44.304 126.604 44.432 126.668 44.592C126.732 44.72 126.796 44.848 126.86 44.976C126.956 45.072 127.068 45.12 127.196 45.12C127.484 45.12 127.948 44.976 128.588 44.688C129.228 44.4 130.012 44.256 130.94 44.256C131.804 44.256 132.444 44.288 132.86 44.352C133.308 44.384 133.74 44.48 134.156 44.64C134.252 44.672 134.364 44.752 134.492 44.88C134.652 44.976 134.732 45.136 134.732 45.36ZM161.392 50.016C161.392 50.592 161.12 51.312 160.576 52.176C160.064 53.008 159.36 53.824 158.464 54.624C157.568 55.424 156.528 56.112 155.344 56.688C154.16 57.232 152.928 57.504 151.648 57.504C151.072 57.504 150.464 57.408 149.824 57.216C149.184 57.024 148.56 56.752 147.952 56.4C147.344 56.016 146.8 55.568 146.32 55.056C145.84 54.512 145.488 53.904 145.264 53.232C145.072 53.424 144.832 53.744 144.544 54.192C144.288 54.64 144 55.104 143.68 55.584C143.36 56.032 143.008 56.432 142.624 56.784C142.24 57.104 141.84 57.264 141.424 57.264C141.008 57.264 140.656 57.056 140.368 56.64C140.112 56.192 139.904 55.712 139.744 55.2C139.584 54.656 139.472 54.144 139.408 53.664C139.344 53.184 139.312 52.912 139.312 52.848C139.312 52.464 139.424 51.744 139.648 50.688C139.872 49.6 140.208 48.48 140.656 47.328C141.104 46.176 141.664 45.152 142.336 44.256C143.04 43.36 143.856 42.912 144.784 42.912C145.136 42.912 145.36 43.072 145.456 43.392C145.584 43.68 145.648 43.968 145.648 44.256V45.696C145.808 45.824 145.968 45.92 146.128 45.984C146.32 46.016 146.48 46.08 146.608 46.176C146.768 46.24 146.88 46.352 146.944 46.512C147.04 46.672 147.088 46.928 147.088 47.28C147.088 47.504 147.072 47.712 147.04 47.904C147.008 48.064 146.992 48.224 146.992 48.384C146.992 49.216 147.056 50.032 147.184 50.832C147.312 51.632 147.568 52.352 147.952 52.992C148.336 53.6 148.864 54.112 149.536 54.528C150.208 54.912 151.104 55.104 152.224 55.104C153.632 55.104 154.816 54.816 155.776 54.24C156.768 53.632 157.584 52.976 158.224 52.272C158.896 51.536 159.424 50.88 159.808 50.304C160.192 49.696 160.512 49.392 160.768 49.392C161.184 49.392 161.392 49.6 161.392 50.016ZM144.544 47.904C144.544 47.776 144.512 47.664 144.448 47.568C144.384 47.44 144.352 47.328 144.352 47.232C144.352 47.104 144.384 46.992 144.448 46.896C144.512 46.8 144.544 46.672 144.544 46.512C144.544 46.416 144.512 46.352 144.448 46.32C144.384 46.256 144.352 46.192 144.352 46.128C144.064 46.192 143.76 46.464 143.44 46.944C143.152 47.424 142.864 47.984 142.576 48.624C142.32 49.264 142.112 49.92 141.952 50.592C141.792 51.232 141.712 51.76 141.712 52.176C141.712 52.4 141.776 52.768 141.904 53.28C142.032 53.792 142.176 54.128 142.336 54.288C142.88 53.168 143.376 52.08 143.824 51.024C144.304 49.968 144.544 48.928 144.544 47.904ZM150.544 35.808C150.544 36.064 150.352 36.432 149.968 36.912C149.584 37.392 149.12 37.888 148.576 38.4C148.064 38.912 147.52 39.392 146.944 39.84C146.4 40.256 145.968 40.544 145.648 40.704C145.392 40.832 145.168 40.912 144.976 40.944C144.784 40.976 144.624 40.992 144.496 40.992C144.24 40.992 143.92 40.848 143.536 40.56C143.152 40.272 142.96 40 142.96 39.744C142.96 39.68 143.104 39.6 143.392 39.504C143.68 39.376 144 39.216 144.352 39.024C144.672 38.832 145.088 38.528 145.6 38.112C146.144 37.664 146.672 37.232 147.184 36.816C147.728 36.368 148.208 35.984 148.624 35.664C149.072 35.344 149.376 35.184 149.536 35.184C149.76 35.184 149.984 35.248 150.208 35.376C150.432 35.504 150.544 35.648 150.544 35.808ZM173.887 55.776C173.887 56.128 173.759 56.368 173.503 56.496C173.247 56.624 173.119 56.8 173.119 57.024C173.087 56.992 173.151 57.168 173.311 57.552C173.471 57.936 173.615 58.336 173.743 58.752C173.967 59.616 174.159 60.368 174.319 61.008C174.511 61.648 174.655 62.24 174.751 62.784C174.879 63.328 174.975 63.872 175.039 64.416C175.103 64.96 175.135 65.568 175.135 66.24C175.135 66.912 175.023 67.6 174.799 68.304C174.575 69.008 174.255 69.632 173.839 70.176C173.423 70.72 172.911 71.168 172.303 71.52C171.695 71.872 171.007 72.048 170.239 72.048C169.055 72.048 168.111 71.808 167.407 71.328C166.735 70.848 166.223 70.304 165.871 69.696C165.519 69.088 165.295 68.48 165.199 67.872C165.103 67.296 165.055 66.912 165.055 66.72C165.055 65.536 165.359 64.352 165.967 63.168C166.575 61.984 167.247 60.912 167.983 59.952C168.719 58.992 169.391 58.192 169.999 57.552C170.607 56.912 170.911 56.544 170.911 56.448L170.383 54.864C170.063 55.248 169.775 55.68 169.519 56.16C169.295 56.608 169.039 57.04 168.751 57.456C168.495 57.84 168.175 58.176 167.791 58.464C167.439 58.72 166.991 58.848 166.447 58.848C165.871 58.848 165.295 58.672 164.719 58.32C164.143 57.968 163.631 57.44 163.183 56.736C162.735 56.032 162.367 55.184 162.079 54.192C161.823 53.2 161.695 52.048 161.695 50.736C161.695 50 161.807 49.088 162.031 48C162.255 46.88 162.607 45.808 163.087 44.784C163.567 43.76 164.159 42.896 164.863 42.192C165.599 41.456 166.447 41.088 167.407 41.088C167.951 41.088 168.447 41.184 168.895 41.376C169.375 41.568 169.615 41.808 169.615 42.096C169.615 42.352 169.567 42.56 169.471 42.72C169.375 42.88 169.247 43.04 169.087 43.2C168.991 43.136 168.879 43.072 168.751 43.008C168.655 42.944 168.511 42.912 168.319 42.912C167.615 42.912 166.975 43.232 166.398 43.872C165.855 44.48 165.391 45.248 165.007 46.176C164.623 47.072 164.319 48.016 164.095 49.008C163.903 50 163.807 50.864 163.807 51.6C163.807 53.232 164.079 54.48 164.623 55.344C165.167 56.176 165.743 56.592 166.351 56.592C166.639 56.592 166.943 56.384 167.263 55.968C167.615 55.52 167.935 55.04 168.223 54.528C168.543 53.984 168.815 53.472 169.039 52.992C169.263 52.512 169.391 52.224 169.423 52.128C169.487 51.808 169.519 51.44 169.519 51.024C169.519 50.672 169.503 50.288 169.471 49.872C169.471 49.424 169.471 48.976 169.471 48.528C169.471 47.696 169.535 47.008 169.663 46.464C169.791 45.888 170.111 45.6 170.623 45.6C171.135 45.6 171.503 45.76 171.727 46.08C171.951 46.368 172.062 46.72 172.062 47.136C172.062 47.424 172.047 47.776 172.015 48.192C172.015 48.576 172.015 48.96 172.015 49.344C172.015 49.696 171.999 50.016 171.967 50.304C171.967 50.56 171.967 50.72 171.967 50.784C171.967 50.976 171.983 51.264 172.015 51.648C172.079 52 172.127 52.368 172.159 52.752C172.223 53.104 172.271 53.44 172.303 53.76C172.367 54.048 172.415 54.24 172.447 54.336C172.479 54.432 172.527 54.576 172.591 54.768C172.655 54.96 172.719 55.104 172.783 55.2C172.815 55.136 172.879 55.072 172.975 55.008C173.071 54.912 173.151 54.832 173.215 54.768C173.375 54.864 173.519 55.056 173.647 55.344C173.807 55.6 173.887 55.744 173.887 55.776ZM172.255 61.872C172.127 61.36 171.983 60.848 171.823 60.336C171.663 59.824 171.503 59.296 171.343 58.752C170.799 59.424 170.271 60.064 169.759 60.672C169.279 61.312 168.831 61.936 168.415 62.544C168.031 63.152 167.711 63.776 167.455 64.416C167.231 65.088 167.118 65.792 167.118 66.528C167.118 67.52 167.391 68.336 167.935 68.976C168.511 69.616 169.135 69.936 169.807 69.936C170.543 69.936 171.231 69.664 171.871 69.12C172.543 68.576 172.879 67.792 172.879 66.768C172.879 66.096 172.863 65.536 172.831 65.088C172.799 64.64 172.751 64.24 172.687 63.888C172.655 63.568 172.591 63.248 172.495 62.928C172.431 62.64 172.351 62.288 172.255 61.872ZM187.185 43.104C187.185 43.2 187.105 43.616 186.945 44.352C186.785 45.088 186.625 45.92 186.465 46.848C186.369 47.392 186.209 48.208 185.985 49.296C185.793 50.352 185.697 51.968 185.697 54.144C185.697 54.208 185.681 54.384 185.649 54.672C185.649 54.928 185.601 55.2 185.505 55.488C185.441 55.776 185.329 56.048 185.169 56.304C185.009 56.528 184.769 56.64 184.449 56.64C184.161 56.64 183.841 56.512 183.489 56.256C182.689 55.68 181.953 55.008 181.281 54.24C180.609 53.472 180.033 52.64 179.553 51.744C179.073 50.816 178.705 49.856 178.449 48.864C178.193 47.872 178.065 46.864 178.065 45.84C178.065 45.712 178.145 45.6 178.305 45.504C178.497 45.376 178.641 45.312 178.737 45.312C179.217 45.312 179.585 45.584 179.841 46.128C180.129 46.672 180.401 47.328 180.657 48.096C180.945 48.864 181.265 49.68 181.617 50.544C182.001 51.376 182.561 52.096 183.297 52.704C183.393 52.576 183.473 52.336 183.537 51.984C183.601 51.632 183.649 51.328 183.681 51.072C183.713 50.848 183.761 50.416 183.825 49.776C183.889 49.104 183.953 48.4 184.017 47.664C184.113 46.928 184.177 46.224 184.209 45.552C184.273 44.88 184.305 44.416 184.305 44.16C184.305 43.968 184.321 43.744 184.353 43.488C184.385 43.232 184.449 42.992 184.545 42.768C184.673 42.544 184.833 42.352 185.025 42.192C185.217 42.032 185.473 41.952 185.793 41.952C185.953 41.952 186.225 42.064 186.609 42.288C186.993 42.48 187.185 42.752 187.185 43.104ZM214.22 50.016C214.22 50.592 213.948 51.312 213.404 52.176C212.892 53.008 212.188 53.824 211.292 54.624C210.396 55.424 209.356 56.112 208.172 56.688C206.988 57.232 205.756 57.504 204.476 57.504C203.9 57.504 203.292 57.408 202.652 57.216C202.012 57.024 201.388 56.752 200.78 56.4C200.172 56.016 199.628 55.568 199.148 55.056C198.668 54.512 198.316 53.904 198.092 53.232C197.9 53.424 197.66 53.744 197.372 54.192C197.116 54.64 196.828 55.104 196.508 55.584C196.188 56.032 195.836 56.432 195.452 56.784C195.068 57.104 194.668 57.264 194.252 57.264C193.836 57.264 193.484 57.056 193.196 56.64C192.94 56.192 192.732 55.712 192.572 55.2C192.412 54.656 192.3 54.144 192.236 53.664C192.172 53.184 192.14 52.912 192.14 52.848C192.14 52.464 192.252 51.744 192.476 50.688C192.7 49.6 193.036 48.48 193.484 47.328C193.932 46.176 194.492 45.152 195.164 44.256C195.868 43.36 196.684 42.912 197.612 42.912C197.964 42.912 198.188 43.072 198.284 43.392C198.412 43.68 198.476 43.968 198.476 44.256V45.696C198.636 45.824 198.796 45.92 198.956 45.984C199.148 46.016 199.308 46.08 199.436 46.176C199.596 46.24 199.708 46.352 199.772 46.512C199.868 46.672 199.916 46.928 199.916 47.28C199.916 47.504 199.9 47.712 199.868 47.904C199.836 48.064 199.82 48.224 199.82 48.384C199.82 49.216 199.884 50.032 200.012 50.832C200.14 51.632 200.396 52.352 200.78 52.992C201.164 53.6 201.692 54.112 202.364 54.528C203.036 54.912 203.932 55.104 205.052 55.104C206.46 55.104 207.644 54.816 208.604 54.24C209.596 53.632 210.412 52.976 211.052 52.272C211.724 51.536 212.252 50.88 212.636 50.304C213.02 49.696 213.34 49.392 213.596 49.392C214.012 49.392 214.22 49.6 214.22 50.016ZM197.372 47.904C197.372 47.776 197.34 47.664 197.276 47.568C197.212 47.44 197.18 47.328 197.18 47.232C197.18 47.104 197.212 46.992 197.276 46.896C197.34 46.8 197.372 46.672 197.372 46.512C197.372 46.416 197.34 46.352 197.276 46.32C197.212 46.256 197.18 46.192 197.18 46.128C196.892 46.192 196.588 46.464 196.268 46.944C195.98 47.424 195.692 47.984 195.404 48.624C195.148 49.264 194.94 49.92 194.78 50.592C194.62 51.232 194.54 51.76 194.54 52.176C194.54 52.4 194.604 52.768 194.732 53.28C194.86 53.792 195.004 54.128 195.164 54.288C195.708 53.168 196.204 52.08 196.652 51.024C197.132 49.968 197.372 48.928 197.372 47.904ZM226.139 45.36C226.139 45.584 226.043 45.776 225.851 45.936C225.659 46.064 225.435 46.176 225.179 46.272C224.923 46.368 224.667 46.448 224.411 46.512C224.155 46.544 223.947 46.56 223.787 46.56C223.307 46.56 222.987 46.528 222.827 46.464C222.667 46.4 222.539 46.368 222.443 46.368C221.643 46.368 221.003 46.432 220.523 46.56C220.043 46.688 219.659 46.896 219.371 47.184C219.115 47.472 218.939 47.84 218.843 48.288C218.779 48.704 218.747 49.216 218.747 49.824C218.747 50.848 218.779 51.664 218.843 52.272C218.939 52.88 219.019 53.376 219.083 53.76C219.179 54.144 219.259 54.448 219.323 54.672C219.419 54.864 219.467 55.056 219.467 55.248C219.467 55.504 219.323 55.776 219.035 56.064C218.779 56.352 218.539 56.496 218.315 56.496C217.931 56.496 217.579 56.16 217.259 55.488C216.971 54.784 216.715 53.968 216.491 53.04C216.299 52.08 216.139 51.136 216.011 50.208C215.883 49.28 215.819 48.576 215.819 48.096C215.819 47.552 215.867 47.04 215.963 46.56C216.059 46.048 216.187 45.616 216.347 45.264C216.507 44.88 216.683 44.576 216.875 44.352C217.067 44.128 217.259 44.016 217.451 44.016C217.611 44.016 217.739 44.08 217.835 44.208C217.931 44.304 218.011 44.432 218.075 44.592C218.139 44.72 218.203 44.848 218.267 44.976C218.363 45.072 218.475 45.12 218.603 45.12C218.891 45.12 219.355 44.976 219.995 44.688C220.635 44.4 221.419 44.256 222.347 44.256C223.211 44.256 223.851 44.288 224.267 44.352C224.715 44.384 225.147 44.48 225.563 44.64C225.659 44.672 225.771 44.752 225.899 44.88C226.059 44.976 226.139 45.136 226.139 45.36ZM252.798 50.016C252.798 50.592 252.526 51.312 251.982 52.176C251.47 53.008 250.766 53.824 249.87 54.624C248.974 55.424 247.934 56.112 246.75 56.688C245.566 57.232 244.334 57.504 243.054 57.504C242.478 57.504 241.87 57.408 241.23 57.216C240.59 57.024 239.966 56.752 239.358 56.4C238.75 56.016 238.206 55.568 237.726 55.056C237.246 54.512 236.894 53.904 236.67 53.232C236.478 53.424 236.238 53.744 235.95 54.192C235.694 54.64 235.406 55.104 235.086 55.584C234.766 56.032 234.414 56.432 234.03 56.784C233.646 57.104 233.246 57.264 232.83 57.264C232.414 57.264 232.062 57.056 231.774 56.64C231.518 56.192 231.31 55.712 231.15 55.2C230.99 54.656 230.878 54.144 230.814 53.664C230.75 53.184 230.718 52.912 230.718 52.848C230.718 52.464 230.83 51.744 231.054 50.688C231.278 49.6 231.614 48.48 232.062 47.328C232.51 46.176 233.07 45.152 233.742 44.256C234.446 43.36 235.262 42.912 236.19 42.912C236.542 42.912 236.766 43.072 236.862 43.392C236.99 43.68 237.054 43.968 237.054 44.256V45.696C237.214 45.824 237.374 45.92 237.534 45.984C237.726 46.016 237.886 46.08 238.014 46.176C238.174 46.24 238.286 46.352 238.35 46.512C238.446 46.672 238.494 46.928 238.494 47.28C238.494 47.504 238.478 47.712 238.446 47.904C238.414 48.064 238.398 48.224 238.398 48.384C238.398 49.216 238.462 50.032 238.59 50.832C238.718 51.632 238.974 52.352 239.358 52.992C239.742 53.6 240.27 54.112 240.942 54.528C241.614 54.912 242.51 55.104 243.63 55.104C245.038 55.104 246.222 54.816 247.182 54.24C248.174 53.632 248.99 52.976 249.63 52.272C250.302 51.536 250.83 50.88 251.214 50.304C251.598 49.696 251.918 49.392 252.174 49.392C252.59 49.392 252.798 49.6 252.798 50.016ZM235.95 47.904C235.95 47.776 235.918 47.664 235.854 47.568C235.79 47.44 235.758 47.328 235.758 47.232C235.758 47.104 235.79 46.992 235.854 46.896C235.918 46.8 235.95 46.672 235.95 46.512C235.95 46.416 235.918 46.352 235.854 46.32C235.79 46.256 235.758 46.192 235.758 46.128C235.47 46.192 235.166 46.464 234.846 46.944C234.558 47.424 234.27 47.984 233.982 48.624C233.726 49.264 233.518 49.92 233.358 50.592C233.198 51.232 233.118 51.76 233.118 52.176C233.118 52.4 233.182 52.768 233.31 53.28C233.438 53.792 233.582 54.128 233.742 54.288C234.286 53.168 234.782 52.08 235.23 51.024C235.71 49.968 235.95 48.928 235.95 47.904ZM241.95 35.808C241.95 36.064 241.758 36.432 241.374 36.912C240.99 37.392 240.526 37.888 239.982 38.4C239.47 38.912 238.926 39.392 238.35 39.84C237.806 40.256 237.374 40.544 237.054 40.704C236.798 40.832 236.574 40.912 236.382 40.944C236.19 40.976 236.03 40.992 235.902 40.992C235.646 40.992 235.326 40.848 234.942 40.56C234.558 40.272 234.366 40 234.366 39.744C234.366 39.68 234.51 39.6 234.798 39.504C235.086 39.376 235.406 39.216 235.758 39.024C236.078 38.832 236.494 38.528 237.006 38.112C237.55 37.664 238.078 37.232 238.59 36.816C239.134 36.368 239.614 35.984 240.03 35.664C240.478 35.344 240.782 35.184 240.942 35.184C241.166 35.184 241.39 35.248 241.614 35.376C241.838 35.504 241.95 35.648 241.95 35.808ZM270.957 50.16C270.957 50.416 270.925 50.672 270.861 50.928C270.829 51.184 270.733 51.344 270.573 51.408C269.933 51.696 269.101 51.952 268.077 52.176C267.053 52.368 266.109 52.64 265.245 52.992C264.701 53.216 264.029 53.52 263.229 53.904C262.429 54.288 261.597 54.672 260.733 55.056C259.869 55.44 259.037 55.776 258.237 56.064C257.437 56.32 256.781 56.448 256.269 56.448C255.853 56.448 255.453 56.288 255.069 55.968C254.685 55.648 254.493 55.312 254.493 54.96C254.493 54.32 254.781 53.552 255.357 52.656C255.965 51.728 256.653 50.784 257.421 49.824C258.221 48.864 258.989 47.952 259.725 47.088C260.493 46.192 261.037 45.472 261.357 44.928C261.325 44.928 261.277 44.912 261.213 44.88C261.149 44.816 261.053 44.784 260.925 44.784C259.933 45.104 259.005 45.392 258.141 45.648C257.405 45.872 256.637 46.08 255.837 46.272C255.069 46.432 254.445 46.512 253.965 46.512C253.645 46.512 253.389 46.368 253.197 46.08C253.037 45.792 252.957 45.472 252.957 45.12C252.957 45.024 252.973 44.928 253.005 44.832C253.069 44.736 253.181 44.688 253.341 44.688C253.757 44.592 254.381 44.432 255.213 44.208C256.077 43.984 256.989 43.76 257.949 43.536C258.909 43.28 259.821 43.072 260.685 42.912C261.581 42.72 262.269 42.624 262.749 42.624C263.101 42.624 263.469 42.768 263.853 43.056C264.269 43.312 264.589 43.648 264.813 44.064L257.661 53.232L257.373 53.808C257.373 53.936 257.421 54 257.517 54C257.773 54 258.125 53.888 258.573 53.664C259.053 53.44 259.693 53.12 260.493 52.704C261.325 52.288 262.381 51.792 263.661 51.216C264.973 50.64 266.589 50.016 268.509 49.344C268.829 49.248 269.133 49.2 269.421 49.2C269.901 49.2 270.269 49.312 270.525 49.536C270.813 49.76 270.957 49.968 270.957 50.16ZM283.642 53.664C283.642 54.208 283.45 54.688 283.066 55.104C282.714 55.488 282.25 55.824 281.674 56.112C281.13 56.368 280.522 56.576 279.85 56.736C279.178 56.896 278.538 57.024 277.93 57.12C277.322 57.184 276.778 57.232 276.298 57.264C275.85 57.264 275.562 57.264 275.434 57.264C274.73 57.264 274.186 57.152 273.802 56.928C273.418 56.704 273.226 56.304 273.226 55.728C273.226 55.536 273.242 55.376 273.274 55.248C273.306 55.088 273.434 55.008 273.658 55.008C273.754 55.008 273.914 55.04 274.138 55.104C274.362 55.136 274.538 55.152 274.666 55.152C274.794 55.152 275.194 55.136 275.866 55.104C276.57 55.04 277.306 54.944 278.074 54.816C278.874 54.688 279.578 54.512 280.186 54.288C280.826 54.032 281.146 53.712 281.146 53.328C281.146 53.264 280.81 53.072 280.138 52.752C279.498 52.4 278.522 51.824 277.21 51.024C276.186 50.384 275.466 49.744 275.05 49.104C274.634 48.432 274.426 47.536 274.426 46.416C274.426 45.712 274.57 45.136 274.858 44.688C275.178 44.24 275.594 43.888 276.106 43.632C276.65 43.376 277.258 43.2 277.93 43.104C278.634 42.976 279.37 42.912 280.138 42.912C280.202 42.912 280.394 42.944 280.714 43.008C281.066 43.072 281.434 43.184 281.818 43.344C282.202 43.472 282.538 43.648 282.826 43.872C283.146 44.064 283.306 44.288 283.306 44.544C283.306 44.608 283.242 44.704 283.114 44.832C283.018 44.96 282.842 45.2 282.586 45.552C282.49 45.52 282.314 45.472 282.058 45.408C281.834 45.344 281.562 45.28 281.242 45.216C280.954 45.12 280.65 45.056 280.33 45.024C280.01 44.96 279.754 44.928 279.562 44.928C278.73 44.928 278.058 45.088 277.546 45.408C277.034 45.696 276.778 46.272 276.778 47.136C276.778 47.552 276.938 47.936 277.258 48.288C277.61 48.64 278.042 48.976 278.554 49.296C279.066 49.584 279.61 49.888 280.186 50.208C280.794 50.496 281.354 50.816 281.866 51.168C282.378 51.52 282.794 51.904 283.114 52.32C283.466 52.704 283.642 53.152 283.642 53.664ZM294.132 58.608C294.132 58.864 294.036 59.056 293.844 59.184C293.652 59.312 293.428 59.376 293.172 59.376C292.884 59.376 292.58 59.104 292.26 58.56C291.972 58.016 291.684 57.328 291.396 56.496C291.108 55.664 290.836 54.768 290.58 53.808C290.324 52.816 290.1 51.904 289.908 51.072C289.716 50.208 289.556 49.488 289.428 48.912C289.332 48.336 289.284 48.016 289.284 47.952C289.284 47.824 289.22 47.488 289.092 46.944C288.996 46.4 288.852 45.552 288.66 44.4C288.5 43.248 288.308 41.76 288.084 39.936C287.892 38.08 287.684 35.792 287.46 33.072C287.46 32.784 287.508 32.416 287.604 31.968C287.7 31.52 287.924 31.296 288.276 31.296C288.724 31.296 289.06 31.6 289.284 32.208C289.54 32.816 289.732 33.568 289.86 34.464C290.02 35.36 290.132 36.304 290.196 37.296C290.26 38.256 290.34 39.104 290.436 39.84C290.564 40.864 290.676 41.792 290.772 42.624C290.9 43.456 291.012 44.288 291.108 45.12C291.236 45.92 291.38 46.768 291.54 47.664C291.732 48.56 291.956 49.552 292.212 50.64L294.132 58.608ZM320.673 50.016C320.673 50.592 320.401 51.312 319.857 52.176C319.345 53.008 318.641 53.824 317.745 54.624C316.849 55.424 315.809 56.112 314.625 56.688C313.441 57.232 312.209 57.504 310.929 57.504C310.353 57.504 309.745 57.408 309.105 57.216C308.465 57.024 307.841 56.752 307.233 56.4C306.625 56.016 306.081 55.568 305.601 55.056C305.121 54.512 304.769 53.904 304.545 53.232C304.353 53.424 304.113 53.744 303.825 54.192C303.569 54.64 303.281 55.104 302.961 55.584C302.641 56.032 302.289 56.432 301.905 56.784C301.521 57.104 301.121 57.264 300.705 57.264C300.289 57.264 299.937 57.056 299.649 56.64C299.393 56.192 299.185 55.712 299.025 55.2C298.865 54.656 298.753 54.144 298.689 53.664C298.625 53.184 298.593 52.912 298.593 52.848C298.593 52.464 298.705 51.744 298.929 50.688C299.153 49.6 299.489 48.48 299.937 47.328C300.385 46.176 300.945 45.152 301.617 44.256C302.321 43.36 303.137 42.912 304.065 42.912C304.417 42.912 304.641 43.072 304.737 43.392C304.865 43.68 304.929 43.968 304.929 44.256V45.696C305.089 45.824 305.249 45.92 305.409 45.984C305.601 46.016 305.761 46.08 305.889 46.176C306.049 46.24 306.161 46.352 306.225 46.512C306.321 46.672 306.369 46.928 306.369 47.28C306.369 47.504 306.353 47.712 306.321 47.904C306.289 48.064 306.273 48.224 306.273 48.384C306.273 49.216 306.337 50.032 306.465 50.832C306.593 51.632 306.849 52.352 307.233 52.992C307.617 53.6 308.145 54.112 308.817 54.528C309.489 54.912 310.385 55.104 311.505 55.104C312.913 55.104 314.097 54.816 315.057 54.24C316.049 53.632 316.865 52.976 317.505 52.272C318.177 51.536 318.705 50.88 319.089 50.304C319.473 49.696 319.793 49.392 320.049 49.392C320.465 49.392 320.673 49.6 320.673 50.016ZM303.825 47.904C303.825 47.776 303.793 47.664 303.729 47.568C303.665 47.44 303.633 47.328 303.633 47.232C303.633 47.104 303.665 46.992 303.729 46.896C303.793 46.8 303.825 46.672 303.825 46.512C303.825 46.416 303.793 46.352 303.729 46.32C303.665 46.256 303.633 46.192 303.633 46.128C303.345 46.192 303.041 46.464 302.721 46.944C302.433 47.424 302.145 47.984 301.857 48.624C301.601 49.264 301.393 49.92 301.233 50.592C301.073 51.232 300.993 51.76 300.993 52.176C300.993 52.4 301.057 52.768 301.185 53.28C301.313 53.792 301.457 54.128 301.617 54.288C302.161 53.168 302.657 52.08 303.105 51.024C303.585 49.968 303.825 48.928 303.825 47.904ZM333.984 38.304C333.568 38.784 332.976 39.264 332.208 39.744C331.44 40.192 330.672 40.608 329.904 40.992C329.136 41.376 328.464 41.712 327.888 42C327.312 42.256 327.024 42.432 327.024 42.528C327.024 42.624 327.088 42.912 327.216 43.392C327.344 43.872 327.488 44.448 327.648 45.12C327.84 45.76 328.032 46.432 328.224 47.136C328.416 47.84 328.576 48.464 328.704 49.008C328.768 49.328 328.848 49.744 328.944 50.256C329.04 50.768 329.12 51.28 329.184 51.792C329.28 52.304 329.36 52.768 329.424 53.184C329.488 53.568 329.52 53.776 329.52 53.808C329.52 54.288 329.44 54.784 329.28 55.296C329.12 55.808 328.864 56.064 328.512 56.064C328.32 56.064 328.144 55.984 327.984 55.824C327.824 55.664 327.68 55.488 327.552 55.296C327.424 55.072 327.328 54.864 327.264 54.672C327.2 54.48 327.168 54.336 327.168 54.24C327.168 54.176 327.168 54.08 327.168 53.952C327.2 53.824 327.216 53.68 327.216 53.52C327.216 52.912 327.12 52.032 326.928 50.88C326.864 50.528 326.736 49.984 326.544 49.248C326.352 48.512 326.16 47.76 325.968 46.992C325.744 46.096 325.488 45.12 325.2 44.064C325.072 43.616 324.992 43.392 324.96 43.392C324.736 43.392 324.352 43.536 323.808 43.824C323.296 44.08 322.704 44.416 322.032 44.832C321.36 45.216 320.656 45.648 319.92 46.128C319.184 46.576 318.496 47.008 317.856 47.424C317.216 47.808 316.672 48.144 316.224 48.432C315.744 48.688 315.456 48.816 315.36 48.816C314.944 48.816 314.608 48.672 314.352 48.384C314.096 48.096 313.968 47.776 313.968 47.424C313.968 47.232 314.24 46.96 314.784 46.608C315.296 46.224 315.952 45.808 316.752 45.36C317.52 44.912 318.368 44.448 319.296 43.968C320.192 43.488 321.024 43.056 321.792 42.672C322.592 42.288 323.248 41.968 323.76 41.712C324.304 41.456 324.576 41.328 324.576 41.328C324.288 39.856 324.048 38.544 323.856 37.392C323.696 36.4 323.536 35.488 323.376 34.656C323.248 33.824 323.184 33.376 323.184 33.312C323.184 32.896 323.264 32.592 323.424 32.4C323.616 32.176 323.824 32.064 324.048 32.064C324.4 32.064 324.624 32.304 324.72 32.784C325.072 34.512 325.392 36.048 325.68 37.392C326 38.736 326.304 39.824 326.592 40.656C326.88 40.592 327.376 40.416 328.08 40.128C328.784 39.808 329.52 39.472 330.288 39.12C331.056 38.768 331.744 38.464 332.352 38.208C332.992 37.92 333.36 37.776 333.456 37.776C333.648 37.776 333.76 37.84 333.792 37.968C333.856 38.096 333.92 38.208 333.984 38.304Z" fill="white"/>
</svg>
